<svg width="30" height="30" viewBox="0 0 30 30" fill="none" xmlns="http://www.w3.org/2000/svg">
<path d="M9.43668 2.14282C9.67537 2.14282 9.90429 2.23764 10.0731 2.40643C10.2419 2.57521 10.3367 2.80413 10.3367 3.04282V4.72582H20.0014V3.05439C20.0014 2.8157 20.0962 2.58678 20.265 2.418C20.4338 2.24921 20.6627 2.15439 20.9014 2.15439C21.1401 2.15439 21.369 2.24921 21.5378 2.418C21.7066 2.58678 21.8014 2.8157 21.8014 3.05439V4.72582H25.2857C25.9674 4.72582 26.6213 4.99656 27.1035 5.47852C27.5857 5.96048 27.8568 6.6142 27.8571 7.29596V25.287C27.8568 25.9687 27.5857 26.6225 27.1035 27.1044C26.6213 27.5864 25.9674 27.8571 25.2857 27.8571H4.71425C4.03249 27.8571 3.37863 27.5864 2.89643 27.1044C2.41423 26.6225 2.14316 25.9687 2.14282 25.287V7.29596C2.14316 6.6142 2.41423 5.96048 2.89643 5.47852C3.37863 4.99656 4.03249 4.72582 4.71425 4.72582H8.53668V3.04154C8.53702 2.80306 8.63199 2.57448 8.80074 2.40597C8.96948 2.23747 9.19821 2.14282 9.43668 2.14282ZM3.94282 12.0968V25.287C3.94282 25.3883 3.96278 25.4886 4.00154 25.5822C4.04031 25.6758 4.09713 25.7608 4.16877 25.8324C4.2404 25.9041 4.32544 25.9609 4.41904 25.9997C4.51263 26.0384 4.61295 26.0584 4.71425 26.0584H25.2857C25.387 26.0584 25.4873 26.0384 25.5809 25.9997C25.6745 25.9609 25.7595 25.9041 25.8312 25.8324C25.9028 25.7608 25.9596 25.6758 25.9984 25.5822C26.0372 25.4886 26.0571 25.3883 26.0571 25.287V12.1148L3.94282 12.0968ZM10.7147 20.9387V23.0807H8.57139V20.9387H10.7147ZM16.071 20.9387V23.0807H13.929V20.9387H16.071ZM21.4285 20.9387V23.0807H19.2853V20.9387H21.4285ZM10.7147 15.8254V17.9674H8.57139V15.8254H10.7147ZM16.071 15.8254V17.9674H13.929V15.8254H16.071ZM21.4285 15.8254V17.9674H19.2853V15.8254H21.4285ZM8.53668 6.52454H4.71425C4.61295 6.52454 4.51263 6.54449 4.41904 6.58326C4.32544 6.62203 4.2404 6.67885 4.16877 6.75048C4.09713 6.82212 4.04031 6.90716 4.00154 7.00075C3.96278 7.09435 3.94282 7.19466 3.94282 7.29596V10.2981L26.0571 10.3161V7.29596C26.0571 7.19466 26.0372 7.09435 25.9984 7.00075C25.9596 6.90716 25.9028 6.82212 25.8312 6.75048C25.7595 6.67885 25.6745 6.62203 25.5809 6.58326C25.4873 6.54449 25.387 6.52454 25.2857 6.52454H21.8014V7.71896C21.8014 7.95766 21.7066 8.18658 21.5378 8.35536C21.369 8.52414 21.1401 8.61897 20.9014 8.61897C20.6627 8.61897 20.4338 8.52414 20.265 8.35536C20.0962 8.18658 20.0014 7.95766 20.0014 7.71896V6.52454H10.3367V7.70739C10.3367 7.94609 10.2419 8.17501 10.0731 8.34379C9.90429 8.51257 9.67537 8.60739 9.43668 8.60739C9.19798 8.60739 8.96907 8.51257 8.80028 8.34379C8.6315 8.17501 8.53668 7.94609 8.53668 7.70739V6.52454Z" fill="#8199B7"/>
</svg>
