<svg width="30" height="30" viewBox="0 0 30 30" fill="none" xmlns="http://www.w3.org/2000/svg">
<circle cx="15" cy="11.25" r="5" fill="#8199B7"/>
<circle cx="21.25" cy="11.25" r="3.75" fill="#8199B7"/>
<circle cx="8.75" cy="11.25" r="3.75" fill="#8199B7"/>
<path d="M21.25 16.25C24.4645 16.2501 25.6544 19.6241 26.0596 21.4141C26.1902 21.9911 25.7362 22.5 25.1445 22.5H21.959C21.4551 20.6129 20.4813 18.4727 18.5967 17.25C19.2744 16.6512 20.1419 16.25 21.25 16.25Z" fill="#8199B7"/>
<path d="M8.75 16.25C9.85758 16.25 10.7247 16.6507 11.4023 17.249C9.51776 18.4718 8.5439 20.6128 8.04004 22.5H4.85449C4.26306 22.4998 3.80986 21.991 3.94043 21.4141C4.34561 19.6241 5.5355 16.25 8.75 16.25Z" fill="#8199B7"/>
<path d="M15 17.5C19.8232 17.5 20.9243 21.9665 21.1756 24.0058C21.2432 24.554 20.8023 25 20.25 25H9.75C9.19772 25 8.7568 24.554 8.82436 24.0058C9.07574 21.9665 10.1768 17.5 15 17.5Z" fill="#8199B7"/>
</svg>
