<svg width="32" height="32" viewBox="0 0 32 32" fill="none" xmlns="http://www.w3.org/2000/svg">
<ellipse cx="16" cy="12" rx="5.33333" ry="5.33333" fill="#084579"/>
<circle cx="22.6667" cy="12" r="4" fill="#084579"/>
<circle cx="9.33331" cy="12" r="4" fill="#084579"/>
<path d="M22.6671 17.333C26.1388 17.3333 27.3962 21.0238 27.8126 22.9131C27.94 23.4908 27.4863 24 26.8947 24H23.4249C22.8876 21.9873 21.8476 19.7048 19.838 18.4004C20.5609 17.762 21.4854 17.333 22.6671 17.333Z" fill="#084579"/>
<path d="M9.33344 17.333C10.515 17.333 11.4397 17.7611 12.1625 18.3994C10.1524 19.7037 9.11304 21.9871 8.57562 24H5.10492C4.51336 24 4.05967 23.4908 4.18695 22.9131C4.60343 21.0237 5.86141 17.333 9.33344 17.333Z" fill="#084579"/>
<path d="M16 18.6667C21.1959 18.6667 22.3422 23.5262 22.5951 25.6704C22.6598 26.2189 22.2189 26.6667 21.6666 26.6667H10.3333C9.78103 26.6667 9.34021 26.2189 9.40489 25.6704C9.65778 23.5262 10.8041 18.6667 16 18.6667Z" fill="#084579"/>
</svg>
