<svg width="20" height="20" viewBox="0 0 20 20" fill="none" xmlns="http://www.w3.org/2000/svg">
<circle cx="9.99996" cy="7.50002" r="3.33333" fill="#A6800B"/>
<ellipse cx="14.1666" cy="7.5" rx="2.5" ry="2.5" fill="#A6800B"/>
<circle cx="5.83337" cy="7.5" r="2.5" fill="#A6800B"/>
<path d="M14.1671 10.833C16.1106 10.8333 16.9436 12.6845 17.2833 13.9189C17.44 14.4892 16.9862 15 16.3947 15H14.6378C14.3019 13.7423 13.6542 12.3161 12.3986 11.501C12.8504 11.1017 13.4283 10.833 14.1671 10.833Z" fill="#A6800B"/>
<path d="M5.83325 10.833C6.57187 10.833 7.14903 11.1019 7.60083 11.501C6.34549 12.3161 5.69839 13.7425 5.36255 15H3.60474C3.01339 14.9999 2.5595 14.4891 2.71606 13.9189C3.05578 12.6844 3.8895 10.8331 5.83325 10.833Z" fill="#A6800B"/>
<path d="M10 11.6667C12.9747 11.6667 13.8257 14.2151 14.0691 15.6732C14.1601 16.2179 13.719 16.6667 13.1667 16.6667H6.83337C6.28109 16.6667 5.83998 16.2179 5.93093 15.6732C6.17439 14.2151 7.02538 11.6667 10 11.6667Z" fill="#A6800B"/>
</svg>
