<svg width="32" height="32" viewBox="0 0 32 32" fill="none" xmlns="http://www.w3.org/2000/svg">
<path d="M20.0685 10.5C20.4664 9.81095 21.1216 9.30815 21.8902 9.10222C22.6587 8.89629 23.4776 9.0041 24.1666 9.40192C24.8557 9.79975 25.3585 10.455 25.5644 11.2235C25.7703 11.9921 25.6625 12.8109 25.2647 13.5C24.8669 14.1891 24.2116 14.6918 23.4431 14.8978C22.6745 15.1037 21.8557 14.9959 21.1666 14.5981C20.4776 14.2003 19.9748 13.545 19.7688 12.7765C19.5629 12.0079 19.6707 11.1891 20.0685 10.5L20.0685 10.5Z" stroke="#084579" stroke-width="2"/>
<path d="M6.7353 10.5C7.13312 9.81095 7.78838 9.30815 8.55692 9.10222C9.32546 8.89629 10.1443 9.0041 10.8334 9.40192C11.5224 9.79975 12.0252 10.455 12.2312 11.2235C12.4371 11.9921 12.3293 12.8109 11.9315 13.5C11.5336 14.1891 10.8784 14.6918 10.1098 14.8978C9.34129 15.1037 8.52243 14.9959 7.83337 14.5981C7.14432 14.2003 6.64153 13.545 6.4356 12.7765C6.22967 12.0079 6.33747 11.1891 6.7353 10.5L6.7353 10.5Z" stroke="#084579" stroke-width="2"/>
<circle cx="16" cy="10.6667" r="4.33333" fill="white" stroke="#084579" stroke-width="2" stroke-linecap="round"/>
<path d="M22.6665 18.667V17.667H22.6665L22.6665 18.667ZM27.7456 22.8994L28.702 22.6074L28.7019 22.607L27.7456 22.8994ZM22.5083 24L21.528 24.1974L21.6896 25H22.5083V24ZM19.7085 19.6143L19.1037 18.8179L17.9471 19.6962L19.1802 20.4633L19.7085 19.6143ZM22.6665 18.667V19.667C25.2589 19.667 26.3383 21.7167 26.7893 23.1918L27.7456 22.8994L28.7019 22.607C28.198 20.9589 26.6788 17.667 22.6665 17.667V18.667ZM27.7456 22.8994L26.7892 23.1914C26.7845 23.1761 26.7804 23.146 26.788 23.1095C26.7952 23.075 26.8099 23.0487 26.8239 23.0317C26.8511 22.9985 26.8736 23 26.8667 23V24V25C28.0281 25 29.1053 23.9283 28.702 22.6074L27.7456 22.8994ZM26.8667 24V23H22.5083V24V25H26.8667V24ZM22.5083 24L23.4886 23.8026C23.2054 22.3963 22.426 20.1272 20.2367 18.7652L19.7085 19.6143L19.1802 20.4633C20.6801 21.3964 21.2884 23.0077 21.528 24.1974L22.5083 24ZM19.7085 19.6143L20.3133 20.4107C20.8831 19.978 21.6356 19.667 22.6665 19.667L22.6665 18.667L22.6665 17.667C21.1914 17.667 20.0155 18.1255 19.1037 18.8179L19.7085 19.6143Z" fill="#084579"/>
<path d="M9.3335 18.667L9.33352 17.667H9.3335V18.667ZM12.2915 19.6143L12.8197 20.4634L14.0529 19.6962L12.8963 18.8179L12.2915 19.6143ZM9.4917 24V25H10.3104L10.472 24.1974L9.4917 24ZM5.13232 24L5.13188 25H5.13232V24ZM4.25439 22.8994L3.2981 22.607L3.29797 22.6074L4.25439 22.8994ZM9.3335 18.667L9.33347 19.667C10.3644 19.667 11.117 19.978 11.6867 20.4107L12.2915 19.6143L12.8963 18.8179C11.9845 18.1255 10.8086 17.667 9.33352 17.667L9.3335 18.667ZM12.2915 19.6143L11.7633 18.7652C9.57395 20.1272 8.79463 22.3963 8.51139 23.8026L9.4917 24L10.472 24.1974C10.7116 23.0077 11.3199 21.3964 12.8197 20.4634L12.2915 19.6143ZM9.4917 24V23H5.13232V24V25H9.4917V24ZM5.13232 24L5.13277 23C5.12599 23 5.14878 22.9986 5.17609 23.032C5.19012 23.0491 5.20478 23.0754 5.21195 23.1099C5.21955 23.1463 5.21544 23.1763 5.21081 23.1914L4.25439 22.8994L3.29797 22.6074C2.89507 23.9271 3.96998 24.9995 5.13188 25L5.13232 24ZM4.25439 22.8994L5.21069 23.1918C5.66171 21.7167 6.74115 19.667 9.3335 19.667V18.667V17.667C5.32118 17.667 3.80201 20.9589 3.2981 22.607L4.25439 22.8994Z" fill="#084579"/>
<path d="M16 18.6667C21.0439 18.6667 22.2717 22.4827 22.5705 24.3405C22.6583 24.8858 22.219 25.3333 21.6667 25.3333H10.3334C9.78109 25.3333 9.34181 24.8858 9.42953 24.3405C9.72841 22.4827 10.9562 18.6667 16 18.6667Z" stroke="#084579" stroke-width="2" stroke-linecap="round"/>
</svg>
