<svg width="48" height="48" viewBox="0 0 48 48" fill="none" xmlns="http://www.w3.org/2000/svg">
<path d="M18 20L25.2581 25.4436C25.6766 25.7574 26.2662 25.6957 26.6107 25.3021L40 10" stroke="#A6800B" stroke-width="6" stroke-linecap="round"/>
<path d="M42 24C42 27.761 40.8219 31.4275 38.6312 34.4846C36.4406 37.5417 33.3473 39.8358 29.7859 41.0447C26.2245 42.2537 22.3739 42.3167 18.7749 41.2249C15.1758 40.1332 12.0092 37.9415 9.71964 34.9577C7.4301 31.9739 6.13269 28.3479 6.00964 24.5889C5.88658 20.83 6.94406 17.1269 9.03355 13.9997C11.123 10.8726 14.1396 8.4785 17.6595 7.15369C21.1794 5.82889 25.0259 5.63992 28.6587 6.61333" stroke="#A6800B" stroke-width="6" stroke-linecap="round"/>
</svg>
