<svg width="32" height="32" viewBox="0 0 32 32" fill="none" xmlns="http://www.w3.org/2000/svg">
<circle cx="16.5" cy="16.5" r="10.5" stroke="#084579" stroke-width="2"/>
<path d="M10.7027 17.9175C11.3288 18.1073 12.0231 18.2023 12.7855 18.2023C13.1547 18.2023 13.4317 18.1893 13.6163 18.1634C13.8009 18.1375 13.9253 18.0944 13.9895 18.034C14.0537 17.9736 14.0858 17.8916 14.0858 17.788C14.0858 17.6413 14.0336 17.5507 13.9293 17.5162C13.833 17.4816 13.6363 17.4342 13.3394 17.3738L12.3882 17.1796C11.7783 17.0501 11.3368 16.8473 11.0639 16.5712C10.7991 16.2864 10.6666 15.8635 10.6666 15.3026C10.6666 14.5431 10.8753 14.0253 11.2927 13.7491C11.7181 13.473 12.3923 13.3349 13.3153 13.3349C13.8691 13.3349 14.3547 13.3694 14.772 13.4385C15.1974 13.4989 15.5506 13.5765 15.8315 13.6715L15.8074 15.2378L15.7713 15.2767C15.1212 15.0523 14.4108 14.9401 13.6403 14.9401C13.2631 14.9401 12.9982 14.9703 12.8457 15.0307C12.7013 15.0825 12.629 15.1904 12.629 15.3543C12.629 15.4406 12.6491 15.5097 12.6892 15.5615C12.7374 15.6132 12.8417 15.665 13.0023 15.7168C13.1628 15.7599 13.4156 15.816 13.7607 15.8851L14.6396 16.0663C15.1292 16.1785 15.4904 16.3641 15.7231 16.623C15.9559 16.8819 16.0723 17.2918 16.0723 17.8527C16.0723 18.3446 15.988 18.7373 15.8194 19.0307C15.6509 19.3155 15.366 19.5183 14.9647 19.6392C14.5714 19.76 14.0256 19.8204 13.3273 19.8204C12.7976 19.8204 12.308 19.7945 11.8585 19.7427C11.4171 19.6823 11.0198 19.6133 10.6666 19.5356V17.9434L10.7027 17.9175Z" fill="#084579"/>
<path d="M18.3386 11.8333H20.1445L18.0562 21.1667H16.2503L18.3386 11.8333Z" fill="#084579"/>
<path d="M22.2851 17.8572C22.3012 18.047 22.3132 18.211 22.3213 18.3491C22.3293 18.4785 22.3333 18.6166 22.3333 18.7633C22.3333 18.9014 22.3293 19.0438 22.3213 19.1905C22.3132 19.3286 22.3012 19.4883 22.2851 19.6695C22.0845 19.704 21.8838 19.7342 21.6832 19.7601C21.4825 19.786 21.2819 19.7989 21.0812 19.7989C20.8886 19.7989 20.6959 19.786 20.5033 19.7601C20.3107 19.7342 20.114 19.704 19.9134 19.6695C19.8893 19.4969 19.8733 19.3416 19.8652 19.2035C19.8572 19.0568 19.8532 18.9144 19.8532 18.7763C19.8532 18.6468 19.8572 18.5087 19.8652 18.362C19.8733 18.2153 19.8893 18.047 19.9134 17.8572C20.3147 17.7795 20.712 17.7407 21.1053 17.7407C21.4986 17.7407 21.8918 17.7795 22.2851 17.8572Z" fill="#084579"/>
</svg>
