<svg width="16" height="16" viewBox="0 0 16 16" fill="none" xmlns="http://www.w3.org/2000/svg">
<path d="M11.1017 2.49838L13.5025 4.89998L13.9025 4.49998C14.0643 4.34321 14.1933 4.15581 14.282 3.9487C14.3707 3.74159 14.4173 3.51891 14.419 3.29362C14.4208 3.06833 14.3778 2.84493 14.2924 2.63645C14.207 2.42796 14.0809 2.23855 13.9216 2.07924C13.7623 1.91993 13.5729 1.79391 13.3644 1.70851C13.1559 1.62312 12.9325 1.58006 12.7073 1.58184C12.482 1.58362 12.2593 1.63021 12.0522 1.71889C11.8451 1.80757 11.6577 1.93657 11.5009 2.09838L11.1009 2.49838H11.1017ZM12.4001 5.99998L9.9985 3.59838L2.3793 11.2184L1.6001 14.3992L4.7809 13.62L12.4001 5.99998Z" fill="#084579"/>
</svg>
