<svg width="40" height="40" viewBox="0 0 40 40" fill="none" xmlns="http://www.w3.org/2000/svg">
<path d="M33.2852 15.334V24C33.2852 26.8283 33.2849 28.2424 32.4062 29.1211C31.5276 29.9997 30.1134 30 27.2852 30H12.7148C9.88657 30 8.47241 29.9997 7.59375 29.1211C6.71513 28.2424 6.71484 26.8283 6.71484 24V14.9062L19.0283 21.748C19.6321 22.0835 20.3668 22.0833 20.9707 21.748L33.2842 14.9062C33.2843 15.0451 33.2852 15.1877 33.2852 15.334ZM27.2852 9.33398C30.1133 9.33398 31.5276 9.33434 32.4062 10.2129C32.9649 10.7716 33.1671 11.5471 33.2412 12.7646C33.0908 12.7711 32.9393 12.8106 32.7988 12.8887L20 19.999L7.2002 12.8887C7.05955 12.8106 6.90825 12.771 6.75781 12.7646C6.8319 11.547 7.03505 10.7716 7.59375 10.2129C8.47241 9.33434 9.88668 9.33398 12.7148 9.33398H27.2852Z" fill="#084579"/>
</svg>
