<svg width="32" height="32" viewBox="0 0 32 32" fill="none" xmlns="http://www.w3.org/2000/svg">
<path d="M6.44174 20.861C5.7621 20.2075 5.42228 19.8808 5.41413 19.4667C5.40599 19.0525 5.73271 18.7127 6.38614 18.0331L13.9611 10.1542C14.3243 9.7765 14.5058 9.58765 14.7444 9.51028C14.9829 9.4329 15.2408 9.47922 15.7565 9.57186L20.4881 10.4218C21.1242 10.5361 21.4423 10.5932 21.6606 10.8031C21.8788 11.0129 21.9484 11.3285 22.0876 11.9596L23.1229 16.6542C23.2357 17.1659 23.2922 17.4217 23.2242 17.6631C23.1563 17.9045 22.9747 18.0933 22.6116 18.471L15.0366 26.3499C14.3832 27.0295 14.0565 27.3694 13.6423 27.3775C13.2282 27.3857 12.8884 27.0589 12.2087 26.4055L6.44174 20.861Z" stroke="#084579" stroke-width="2"/>
<circle cx="17.6598" cy="14.6847" r="1" transform="rotate(-69.4375 17.6598 14.6847)" fill="#084579" stroke="#084579" stroke-width="2"/>
<path d="M17.2741 14.2527C17.2741 14.2527 20.6181 12.8381 19.5274 10.2027C18.4366 7.56733 18.8736 6.13465 20.2886 5" stroke="#084579" stroke-width="2" stroke-linecap="round"/>
</svg>
