<svg width="30" height="30" viewBox="0 0 30 30" fill="none" xmlns="http://www.w3.org/2000/svg">
<path d="M4.44174 19.7659C3.7621 19.1125 3.42228 18.7858 3.41413 18.3716C3.40599 17.9575 3.73271 17.6177 4.38614 16.938L13.011 7.96712C13.3742 7.5894 13.5558 7.40055 13.7943 7.32318C14.0328 7.2458 14.2907 7.29212 14.8064 7.38476L20.306 8.37266C20.9422 8.48693 21.2602 8.54406 21.4785 8.75391C21.6967 8.96375 21.7663 9.27931 21.9055 9.91044L23.1089 15.367C23.2217 15.8787 23.2781 16.1345 23.2102 16.3759C23.1422 16.6173 22.9607 16.8062 22.5975 17.1839L13.9726 26.1548C13.3192 26.8344 12.9925 27.1742 12.5783 27.1824C12.1642 27.1905 11.8244 26.8638 11.1447 26.2104L4.44174 19.7659Z" stroke="#8199B7" stroke-width="2"/>
<circle cx="16.4268" cy="12.7326" r="1.10821" transform="rotate(-69.4375 16.4268 12.7326)" fill="#8199B7" stroke="#8199B7" stroke-width="2"/>
<path d="M16.8356 12.2539C16.8356 12.2539 20.5415 10.6863 19.3327 7.76572C18.1239 4.84514 18.6082 3.25743 20.1762 2.00001" stroke="#8199B7" stroke-width="2" stroke-linecap="round"/>
</svg>
