<svg width="40" height="40" viewBox="0 0 40 40" fill="none" xmlns="http://www.w3.org/2000/svg">
<path d="M20 25.4164C17.0085 25.4164 14.5833 22.9913 14.5833 19.9998C14.5833 17.0082 17.0085 14.5831 20 14.5831C22.9915 14.5831 25.4167 17.0082 25.4167 19.9998C25.4167 22.9913 22.9915 25.4164 20 25.4164Z" fill="#084579"/>
<path fill-rule="evenodd" clip-rule="evenodd" d="M11.2826 34.864C17.0294 35.5063 22.9706 35.5063 28.7175 34.864C31.8815 34.5104 34.4335 32.0174 34.8048 28.8423C35.492 22.9673 35.492 17.0322 34.8048 11.1572C34.4335 7.98213 31.8815 5.48916 28.7175 5.13554C22.9706 4.49324 17.0294 4.49324 11.2826 5.13554C8.11857 5.48916 5.56658 7.98213 5.19522 11.1572C4.50809 17.0322 4.50809 22.9673 5.19522 28.8423C5.56658 32.0174 8.11857 34.5104 11.2826 34.864ZM28.3333 29.9998C27.4129 29.9998 26.6667 29.2536 26.6667 28.3331C26.6667 27.4126 27.4129 26.6664 28.3333 26.6664C29.2538 26.6664 30 27.4126 30 28.3331C30 29.2536 29.2538 29.9998 28.3333 29.9998ZM12.0833 19.9998C12.0833 24.372 15.6277 27.9164 20 27.9164C24.3723 27.9164 27.9167 24.372 27.9167 19.9998C27.9167 15.6275 24.3723 12.0831 20 12.0831C15.6277 12.0831 12.0833 15.6275 12.0833 19.9998Z" fill="#084579"/>
</svg>
