<svg width="20" height="20" viewBox="0 0 20 20" fill="none" xmlns="http://www.w3.org/2000/svg">
<path d="M10 3.33301C13.2217 3.33301 15.833 5.94533 15.833 9.16699C15.8328 13.2737 11.7158 15.7735 10.3994 16.4678C10.1475 16.6006 9.8525 16.6006 9.60059 16.4678C8.28424 15.7735 4.16721 13.2737 4.16699 9.16699C4.16699 5.94533 6.77834 3.33301 10 3.33301ZM10 6.66699C8.61929 6.66699 7.5 7.78628 7.5 9.16699C7.50018 10.5476 8.6194 11.667 10 11.667C11.3806 11.667 12.4998 10.5476 12.5 9.16699C12.5 7.78628 11.3807 6.66699 10 6.66699Z" fill="#A6800B"/>
</svg>
