<svg width="40" height="40" viewBox="0 0 40 40" fill="none" xmlns="http://www.w3.org/2000/svg">
<path d="M20 6.66699C26.4432 6.66699 31.6668 11.8898 31.667 18.333C31.667 27.0283 22.4379 32.1222 20.3965 33.1426C20.1417 33.2699 19.8583 33.2699 19.6035 33.1426C17.5621 32.1222 8.33301 27.0283 8.33301 18.333C8.33318 11.8898 13.5568 6.66699 20 6.66699ZM20 13.333C17.2387 13.333 15.0002 15.5717 15 18.333C15 21.0944 17.2386 23.333 20 23.333C22.7614 23.333 25 21.0944 25 18.333C24.9998 15.5717 22.7613 13.333 20 13.333Z" fill="#084579"/>
</svg>
