<svg width="37" height="37" viewBox="0 0 37 37" fill="none" xmlns="http://www.w3.org/2000/svg">
<path d="M4.89569 8.39465C4.78304 7.76131 4.68507 6.56857 5.62616 5.62708C6.56753 4.6857 7.7602 4.78396 8.39374 4.89661C8.8795 4.98302 9.44479 5.15481 10.0187 5.3429L23.1642 9.72473C25.4565 10.4888 27.377 11.1245 28.7014 11.7687C29.8577 12.3312 31.592 13.3751 31.592 15.4171C31.5917 17.4588 29.8576 18.5031 28.7014 19.0656C27.377 19.7097 25.4563 20.3455 23.1642 21.1095L22.5715 21.3068C22.0735 21.4727 21.8214 21.5589 21.6467 21.6349C21.6437 21.6363 21.6407 21.6385 21.6379 21.6398C21.6368 21.6422 21.6351 21.645 21.634 21.6476C21.5581 21.8223 21.4718 22.0746 21.3058 22.5724L21.1086 23.1652C20.3445 25.4573 19.7088 27.378 19.0646 28.7023C18.5196 29.8224 17.5227 31.4853 15.6047 31.588L15.4162 31.5929L15.2277 31.588C13.3098 31.485 12.3127 29.8224 11.7678 28.7023C11.1236 27.3779 10.4879 25.4574 9.72382 23.1652L5.53339 10.5939C5.27903 9.83082 5.01096 9.04236 4.89569 8.39465ZM13.5187 21.9005C14.3232 24.314 14.865 25.9235 15.3654 26.9523C15.3822 26.9867 15.4003 27.0193 15.4162 27.0509C15.4321 27.0194 15.4503 26.9866 15.467 26.9523C15.9674 25.9235 16.5092 24.3139 17.3137 21.9005L17.5109 21.3068C17.7423 20.6126 18.0121 19.6677 18.6594 18.9376L18.7941 18.795L18.9367 18.6603C19.6667 18.0129 20.6115 17.7432 21.3058 17.5118L21.8996 17.3146C24.3128 16.5102 25.9225 15.9683 26.9514 15.4679C26.9854 15.4513 27.0178 15.4329 27.049 15.4171C27.0177 15.4013 26.9855 15.3829 26.9514 15.3663C25.9225 14.8659 24.3131 14.3241 21.8996 13.5197L9.32831 9.32922L13.5187 21.9005Z" fill="#33363F"/>
</svg>
