<svg width="20" height="20" viewBox="0 0 20 20" fill="none" xmlns="http://www.w3.org/2000/svg">
<path d="M17.0135 3.21721C17.0135 4.0073 16.373 4.64779 15.5829 4.64779C14.7928 4.64779 14.1523 4.0073 14.1523 3.21721C14.1523 2.42712 14.7928 1.78662 15.5829 1.78662C16.373 1.78662 17.0135 2.42712 17.0135 3.21721Z" fill="#084579"/>
<path d="M5.60219 5.12469C6.22648 5.1247 6.78641 5.5549 6.94041 6.15308L7.97513 10.1754C8.05493 10.4858 7.88303 10.7928 7.57785 10.885C7.2241 10.9918 6.8382 10.7694 6.75159 10.4085L6.19907 8.10592V17.3512C6.19902 17.7095 5.90847 18 5.55023 18.0001H5.41717C5.05885 18.0001 4.76838 17.7095 4.76833 17.3512V12.7542H3.81472V17.3512C3.81467 17.7095 3.52413 18 3.16588 18.0001H3.03282C2.67451 18 2.38403 17.7095 2.38398 17.3512V8.10466L1.83082 10.4098C1.74445 10.7697 1.35972 10.9917 1.0071 10.885C0.703341 10.793 0.531822 10.487 0.61108 10.1779L1.64326 6.15434C1.79681 5.55558 2.35673 5.1247 2.98149 5.12469H5.60219Z" fill="#084579"/>
<path d="M5.72201 3.21721C5.72201 4.0073 5.08151 4.64779 4.29142 4.64779C3.50133 4.64779 2.86084 4.0073 2.86084 3.21721C2.86084 2.42712 3.50133 1.78662 4.29142 1.78662C5.08151 1.78662 5.72201 2.42712 5.72201 3.21721Z" fill="#084579"/>
<path d="M14.3661 5.16208C14.4341 5.1379 14.5072 5.12472 14.5834 5.12469H16.7277C16.8077 5.12469 16.8844 5.1394 16.9552 5.16588L16.9463 5.12469H17.1928C17.8028 5.12469 18.3351 5.54692 18.4727 6.13976L19.3915 10.0967C19.4716 10.4424 19.2558 10.7849 18.9093 10.8615C18.5613 10.9385 18.2138 10.7181 18.135 10.3705L17.3765 7.02303V8.62167L18.237 12.7542H17.3765V17.3543C17.3765 17.7106 17.0878 17.9998 16.7315 17.9999C16.3751 17.9999 16.0858 17.7107 16.0858 17.3543V12.7542H15.2253V17.3543C15.2253 17.7107 14.9366 17.9999 14.5803 17.9999C14.2239 17.9999 13.9346 17.7107 13.9346 17.3543V12.7542H13.0741L13.9346 8.62167V7.08069L13.1945 10.3692C13.1162 10.7173 12.7686 10.9379 12.4202 10.8609C12.074 10.7844 11.8578 10.4429 11.9374 10.0974L12.8498 6.14166C12.9867 5.54798 13.5191 5.12479 14.1298 5.12469H14.375L14.3661 5.16208Z" fill="#084579"/>
<path d="M9.65234 2.02505C9.65234 1.89337 9.75909 1.78662 9.89077 1.78662V1.78662C10.0225 1.78662 10.1292 1.89337 10.1292 2.02505V17.7615C10.1292 17.8932 10.0225 17.9999 9.89077 17.9999V17.9999C9.75909 17.9999 9.65234 17.8932 9.65234 17.7615V2.02505Z" fill="#084579"/>
</svg>
