<svg width="40" height="40" viewBox="0 0 40 40" fill="none" xmlns="http://www.w3.org/2000/svg">
<path d="M23.6667 35.2085C21.6223 35.2085 19.6617 34.3964 18.2161 32.9508C16.7705 31.5052 15.9584 29.5445 15.9584 27.5002V23.2085H11.8334C11.6263 23.2085 11.4584 23.0406 11.4584 22.8335V17.1668C11.4584 16.9597 11.6263 16.7918 11.8334 16.7918H15.9584V5.16683C15.9584 4.95972 16.1263 4.79183 16.3334 4.79183H22C22.2071 4.79183 22.375 4.95972 22.375 5.16683V16.7918H26.5366C26.7087 16.7918 26.8586 16.9089 26.9004 17.0759L28.317 22.7425C28.3762 22.9792 28.1972 23.2085 27.9532 23.2085H22.375V27.5002C22.375 27.8427 22.5111 28.1713 22.7534 28.4135C22.9956 28.6557 23.3241 28.7918 23.6667 28.7918H28C28.2071 28.7918 28.375 28.9597 28.375 29.1668V34.8335C28.375 35.0406 28.2071 35.2085 28 35.2085H23.6667Z" fill="#084579"/>
</svg>
