<svg width="40" height="40" viewBox="0 0 40 40" fill="none" xmlns="http://www.w3.org/2000/svg">
<path d="M29.2556 11.4998C26.9174 9.1209 23.8036 7.8125 20.4944 7.8125C13.6641 7.8125 8.10603 13.4539 8.10603 20.3867C8.10603 22.6014 8.67522 24.765 9.75781 26.6738L8 33.1875L14.5681 31.4373C16.3761 32.4398 18.4129 32.9666 20.4888 32.9666H20.4944C27.3192 32.9666 33 27.3252 33 20.3924C33 17.0336 31.5937 13.8787 29.2556 11.4998ZM20.4944 30.8482C18.6417 30.8482 16.8281 30.3441 15.2489 29.3926L14.875 29.166L10.9799 30.2025L12.0179 26.3453L11.7723 25.9488C10.74 24.2836 10.1987 22.3635 10.1987 20.3867C10.1987 14.6264 14.8192 9.93652 20.5 9.93652C23.2511 9.93652 25.8348 11.024 27.7768 13.0008C29.7187 14.9775 30.9129 17.6 30.9074 20.3924C30.9074 26.1584 26.1696 30.8482 20.4944 30.8482ZM26.1417 23.0205C25.8348 22.8619 24.3114 22.1029 24.0268 22.001C23.7422 21.8934 23.5357 21.8424 23.3292 22.1596C23.1228 22.4768 22.5313 23.1791 22.3471 23.3943C22.1685 23.6039 21.9844 23.6322 21.6775 23.4736C19.8583 22.5504 18.6641 21.8254 17.4643 19.7354C17.1462 19.1803 17.7824 19.2199 18.3739 18.0191C18.4743 17.8096 18.4241 17.6283 18.346 17.4697C18.2679 17.3111 17.6484 15.7648 17.3917 15.1361C17.1406 14.5244 16.8839 14.6094 16.6942 14.598C16.5156 14.5867 16.3092 14.5867 16.1027 14.5867C15.8962 14.5867 15.5614 14.666 15.2768 14.9775C14.9922 15.2947 14.1942 16.0537 14.1942 17.6C14.1942 19.1463 15.3047 20.6416 15.4554 20.8512C15.6116 21.0607 17.6373 24.2326 20.7455 25.5977C22.7098 26.4586 23.4799 26.5322 24.4621 26.385C25.0592 26.2943 26.2924 25.626 26.5491 24.8896C26.8058 24.1533 26.8058 23.5246 26.7277 23.3943C26.6551 23.2527 26.4487 23.1734 26.1417 23.0205Z" fill="#084579" stroke="#084579"/>
</svg>
