<svg width="20" height="20" viewBox="0 0 20 20" fill="none" xmlns="http://www.w3.org/2000/svg">
<path d="M10.18 7.47998C12.4228 7.47998 14.7284 8.43296 16.0944 10.1405C16.4808 10.6235 16.4024 11.328 15.9194 11.7144C15.4364 12.1008 14.7319 12.0224 14.3455 11.5394C13.4715 10.447 11.8572 9.71997 10.18 9.71997C8.47783 9.71997 7.14392 10.1845 6.00025 11.5569C5.60425 12.0321 4.89824 12.0962 4.42307 11.7002C3.94794 11.3042 3.88382 10.5982 4.27979 10.123C5.93609 8.13547 7.9622 7.47998 10.18 7.47998ZM10.18 3C12.2945 3 16.341 3.59706 19.1667 7.05068C19.5584 7.5294 19.4879 8.23507 19.0092 8.62677C18.5305 9.01844 17.8249 8.94795 17.4332 8.46927C15.2189 5.76299 11.9855 5.23999 10.18 5.23999C8.39161 5.23999 5.11567 5.75574 2.60855 8.51357C2.19243 8.97105 1.48406 9.00451 1.02644 8.58849C0.568953 8.17238 0.535501 7.46401 0.951523 7.00639C4.04435 3.60445 8.04843 3 10.18 3Z" fill="#084579"/>
<path d="M6.81982 13.64L10.1798 17L13.2598 13.64C13.2598 13.64 12.4506 12.2095 10.2106 12.2095C7.97058 12.2095 6.81982 13.64 6.81982 13.64Z" fill="#084579"/>
</svg>
