<svg width="40" height="40" viewBox="0 0 40 40" fill="none" xmlns="http://www.w3.org/2000/svg">
<path fill-rule="evenodd" clip-rule="evenodd" d="M11.6481 31.8491C17.2076 32.284 22.7925 32.284 28.352 31.8491L32.0865 31.5569C34.1666 31.3942 35.8683 29.8352 36.2121 27.7772C37.0725 22.6281 37.0725 17.3718 36.2121 12.2227C35.8683 10.1647 34.1666 8.60573 32.0865 8.44299L28.352 8.15082C22.7925 7.71588 17.2076 7.71588 11.6481 8.15082L7.91364 8.44299C5.83351 8.60573 4.13181 10.1647 3.78796 12.2227C2.92761 17.3718 2.92761 22.6281 3.78796 27.7772C4.13181 29.8352 5.83351 31.3942 7.91364 31.5569L11.6481 31.8491ZM16.6667 15.883V24.1169C16.6667 24.5055 17.0907 24.7456 17.4239 24.5456L24.2854 20.4287C24.6091 20.2345 24.6091 19.7654 24.2854 19.5712L17.4239 15.4543C17.0907 15.2543 16.6667 15.4944 16.6667 15.883Z" fill="#084579"/>
</svg>
