<svg width="50" height="50" viewBox="0 0 50 50" fill="none" xmlns="http://www.w3.org/2000/svg">
<path d="M25 0C28.1404 0 31.1451 0.58054 33.9141 1.6377C32.3344 1.26308 30.6853 1.06348 28.9893 1.06348C17.3854 1.06353 7.97852 10.3517 7.97852 21.8086C7.97853 26.6895 9.68683 31.1758 12.5439 34.7188L39.0957 12.2344L19.668 40.4023C20.6298 40.8732 21.6326 41.2748 22.6709 41.5977L39.0957 18.3506L25.7588 42.3076C26.8119 42.4681 27.8906 42.5527 28.9893 42.5527C40.0744 42.5527 49.1528 34.0771 49.9424 23.3311C49.9787 23.8827 50 24.4391 50 25C50 38.8071 38.8071 50 25 50C11.1929 50 0 38.8071 0 25C0 11.1929 11.1929 0 25 0Z" fill="#4A61A3"/>
<path d="M42.8195 2.12769L43.4707 4.16241C43.9534 5.67074 45.1221 6.8612 46.6213 7.37161L48.4046 7.97875L46.6213 8.58589C45.1221 9.0963 43.9534 10.2868 43.4707 11.7951L42.8195 13.8298L42.1683 11.7951C41.6856 10.2868 40.5169 9.0963 39.0177 8.58589L37.2344 7.97875L39.0177 7.37161C40.5169 6.8612 41.6856 5.67074 42.1683 4.16241L42.8195 2.12769Z" fill="#4A61A3"/>
</svg>
