<svg width="50" height="50" viewBox="0 0 50 50" fill="none" xmlns="http://www.w3.org/2000/svg">
<path d="M25 0C28.1404 0 31.1451 0.58054 33.9141 1.6377C32.3344 1.26308 30.6853 1.06348 28.9893 1.06348C17.3854 1.06353 7.97852 10.3517 7.97852 21.8086C7.97853 26.6895 9.68683 31.1758 12.5439 34.7188L39.0957 12.2344L19.668 40.4023C20.6298 40.8732 21.6326 41.2748 22.6709 41.5977L39.0957 18.3506L25.7588 42.3076C26.8119 42.4681 27.8906 42.5527 28.9893 42.5527C40.0744 42.5527 49.1528 34.0771 49.9424 23.3311C49.9787 23.8827 50 24.4391 50 25C50 38.8071 38.8071 50 25 50C11.1929 50 0 38.8071 0 25C0 11.1929 11.1929 0 25 0Z" fill="white"/>
<path d="M42.8192 2.12766L43.4704 4.16239C43.9531 5.67071 45.1219 6.86118 46.621 7.37158L48.4043 7.97873L46.621 8.58587C45.1219 9.09627 43.9531 10.2867 43.4704 11.7951L42.8192 13.8298L42.1681 11.7951C41.6854 10.2867 40.5166 9.09627 39.0174 8.58587L37.2341 7.97873L39.0174 7.37158C40.5166 6.86118 41.6854 5.67071 42.1681 4.16239L42.8192 2.12766Z" fill="white"/>
</svg>
