<svg width="175" height="75" viewBox="0 0 175 75" fill="none" xmlns="http://www.w3.org/2000/svg">
<path d="M47.4412 63.8787H53.2941V65.3304H48.8672V67.9835H53.2941V69.4185H48.8672V73.0728H53.2941V74.5078H47.4412V63.8787Z" fill="white"/>
<path d="M56.5001 63.8954H58.0255L61.3332 71.4125L64.6659 63.8954H66.2079L61.3167 74.8665L56.5001 63.8954Z" fill="white"/>
<path d="M69.9029 63.8787H75.7558V65.3304H71.3288V67.9835H75.7558V69.4185H71.3288V73.0728H75.7558V74.5078H69.9029V63.8787Z" fill="white"/>
<path d="M79.7576 63.4532L87.5669 71.5376V63.8787H89.0094V75L81.2001 66.9573V74.5078H79.7576V63.4532Z" fill="white"/>
<path d="M92.8952 63.8787H99.3532V65.3304H96.833V74.5078H95.4071V65.3304H92.8952V63.8787Z" fill="white"/>
<path d="M102.576 69.1265C102.576 67.5914 103.151 66.276 104.3 65.1803C105.45 64.0845 106.831 63.5367 108.445 63.5367C110.02 63.5367 111.377 64.0901 112.516 65.1969C113.654 66.2982 114.223 67.6081 114.223 69.1265C114.223 70.7339 113.66 72.0938 112.532 73.2062C111.41 74.3131 110.031 74.8665 108.395 74.8665C106.782 74.8665 105.408 74.3075 104.275 73.1896C103.142 72.0716 102.576 70.7172 102.576 69.1265ZM112.69 69.1932C112.69 68.0197 112.27 67.0324 111.43 66.2315C110.59 65.425 109.556 65.0217 108.329 65.0217C107.163 65.0217 106.163 65.4305 105.328 66.2482C104.499 67.0658 104.085 68.0475 104.085 69.1932C104.085 70.3557 104.51 71.3402 105.361 72.1467C106.218 72.9476 107.265 73.3481 108.503 73.3481C109.642 73.3481 110.623 72.9393 111.446 72.1217C112.275 71.2985 112.69 70.3223 112.69 69.1932Z" fill="white"/>
<path d="M124.94 65.0551L123.771 65.9979C123.462 65.6753 123.18 65.4361 122.926 65.2804C122.677 65.1191 122.315 65.0384 121.84 65.0384C121.32 65.0384 120.897 65.158 120.571 65.3972C120.251 65.6308 120.091 65.9339 120.091 66.3066C120.091 66.6292 120.231 66.9156 120.513 67.1659C120.795 67.4106 121.276 67.6804 121.956 67.9752C122.636 68.2644 123.163 68.5369 123.539 68.7928C123.921 69.0431 124.233 69.3212 124.476 69.6271C124.719 69.933 124.899 70.2556 125.015 70.5949C125.137 70.9342 125.197 71.2929 125.197 71.6711C125.197 72.5555 124.877 73.3091 124.236 73.9321C123.6 74.555 122.829 74.8665 121.923 74.8665C121.038 74.8665 120.256 74.6246 119.577 74.1407C118.902 73.6512 118.383 72.9198 118.018 71.9464L119.461 71.5376C119.986 72.7335 120.79 73.3314 121.873 73.3314C122.398 73.3314 122.835 73.1729 123.183 72.8558C123.531 72.5388 123.705 72.1383 123.705 71.6544C123.705 71.3652 123.614 71.076 123.432 70.7868C123.249 70.492 123.023 70.25 122.752 70.0609C122.481 69.8718 122.047 69.6577 121.45 69.4185C120.859 69.1738 120.403 68.9513 120.082 68.7511C119.767 68.5453 119.494 68.3033 119.262 68.0252C119.029 67.7416 118.858 67.4607 118.748 67.1826C118.643 66.9045 118.59 66.6069 118.59 66.2899C118.59 65.5279 118.894 64.8799 119.502 64.3459C120.11 63.8064 120.848 63.5367 121.715 63.5367C122.29 63.5367 122.873 63.6618 123.465 63.9121C124.056 64.1624 124.548 64.5434 124.94 65.0551Z" fill="white"/>
<path d="M9.36154 51.7327C9.13865 51.7327 8.86003 51.6767 8.52569 51.5645C8.19135 51.4523 7.99632 51.2561 7.9406 50.9757C7.88487 50.8635 7.85701 50.6953 7.85701 50.471C7.80129 50.1906 7.80129 49.9382 7.85701 49.7139H7.43908C6.54751 49.7139 5.54449 49.5737 4.43002 49.2933C3.37127 49.069 2.50756 48.5362 1.83887 47.6951C1.61598 47.4147 1.33736 46.8539 1.00302 46.0127C0.724405 45.1715 0.47365 44.3584 0.250756 43.5733C0.0835852 42.7321 0 42.2274 0 42.0591C0 41.3301 0.306479 40.545 0.919437 39.7038C1.5324 38.8626 2.2568 38.1336 3.09265 37.5168C3.92851 36.8999 4.70863 36.5914 5.43304 36.5914C5.76738 36.255 6.43606 35.8624 7.43908 35.4138C8.49783 34.9652 9.58444 34.5446 10.6989 34.152C11.8691 33.7595 12.8164 33.4791 13.5408 33.3108C13.9309 32.3575 14.2931 31.4602 14.6274 30.6191C15.2404 29.0488 15.8812 27.5347 16.5499 26.0767C17.2743 24.6186 17.9708 23.4129 18.6395 22.4596C20.7013 19.3192 22.6516 16.5713 24.4905 14.216C26.3851 11.8046 28.5026 9.64556 30.8429 7.73888C33.2391 5.77612 36.1924 3.89748 39.703 2.10296C40.5388 1.65433 41.3468 1.26178 42.127 0.925304C42.9628 0.53275 43.8544 0.308435 44.8017 0.252357C45.6375 0.252357 46.4734 0.168238 47.3092 0C47.9222 0.11216 48.7023 0.336475 49.6496 0.672947C50.6526 0.953341 51.5442 1.34589 52.3244 1.8506C53.1045 2.29923 53.5224 2.86002 53.5781 3.53297C53.6896 5.15926 53.2438 6.78554 52.2408 8.41183C51.2377 10.0381 50.2626 11.412 49.3153 12.5336C47.4764 14.7768 45.4704 16.9639 43.2971 19.0948C41.1239 21.2258 38.7557 23.0764 36.1924 24.6467C35.1337 25.3196 34.0192 26.0206 32.849 26.7496C31.7345 27.4226 30.6201 28.0675 29.5056 28.6843C27.8896 29.5255 26.2179 30.3106 24.4905 31.0396C22.8188 31.7126 21.1192 32.3855 19.3918 33.0585C18.6116 33.395 17.8594 33.8997 17.135 34.5726C16.4106 35.2456 15.7419 35.8905 15.1289 36.5073C14.6831 36.956 14.1816 37.7411 13.6244 38.8626C13.1229 39.9281 12.705 41.0497 12.3706 42.2274C12.0363 43.3489 11.897 44.2182 11.9527 44.835V45.0033C12.6214 44.9472 13.29 44.9192 13.9587 44.9192C14.6274 44.8631 15.2682 44.807 15.8812 44.7509C16.9399 44.6388 17.9708 44.4986 18.9738 44.3303C19.9769 44.1621 21.0078 44.0499 22.0665 43.9939V43.8256L23.8218 43.7415C24.0447 43.6854 24.6855 43.5733 25.7442 43.405C26.803 43.2368 27.9732 43.0405 29.2548 42.8162C30.5922 42.5919 31.7902 42.3956 32.849 42.2274C33.9635 42.0591 34.66 41.975 34.9386 41.975C35.273 41.8068 35.6909 41.7227 36.1924 41.7227C36.7496 41.6666 37.2233 41.6385 37.6133 41.6385C37.7805 41.6385 37.9477 41.6666 38.1149 41.7227C38.3378 41.7227 38.5328 41.7227 38.7 41.7227C38.8114 41.7227 39.2572 41.6946 40.0373 41.6385C40.8732 41.5264 41.3468 41.4423 41.4583 41.3862C42.6842 41.4423 43.9658 41.4983 45.3032 41.5544C46.6963 41.5544 48.0336 41.7227 49.3153 42.0591C50.5969 42.3395 51.7393 42.9284 52.7423 43.8256C53.3552 44.3864 53.8846 45.2276 54.3304 46.3492C54.7762 47.4707 55.1105 48.5643 55.3334 49.6298C55.5563 50.7514 55.6678 51.6206 55.6678 52.2374C55.6678 52.7982 55.5563 53.331 55.3334 53.8357C55.1105 54.3965 54.6926 54.761 54.0796 54.9292C53.9125 54.9853 53.7453 55.0133 53.5781 55.0133C53.411 55.0694 53.2438 55.1535 53.0766 55.2657C52.6866 55.3779 52.2686 55.5461 51.8228 55.7704C51.3771 56.0508 50.9313 56.191 50.4855 56.191H50.0675V56.0228H49.984V55.5181H50.1511C50.987 54.9012 51.8228 54.1441 52.6587 53.2469C53.5503 52.3496 53.9961 51.3963 53.9961 50.3868C53.9961 49.097 53.411 48.0596 52.2408 47.2745C51.1263 46.4894 49.7053 45.9005 47.9779 45.508C46.3062 45.0594 44.6345 44.779 42.9628 44.6668C41.2911 44.4986 39.898 44.4144 38.7835 44.4144C37.5019 44.4144 36.0252 44.5266 34.3535 44.7509C32.7375 44.9192 31.038 45.1715 29.2548 45.508L19.8933 47.3586C19.5032 47.4147 19.141 47.4988 18.8067 47.6109C18.5281 47.7792 18.2494 47.9194 17.9708 48.0315C17.6365 48.0876 17.2743 48.1437 16.8842 48.1998C16.5499 48.3119 16.1319 48.368 15.6304 48.368C15.5747 48.368 15.4354 48.4241 15.2125 48.5362L14.711 48.7045L13.2065 48.6204C13.0393 48.6204 12.8443 48.6204 12.6214 48.6204V49.041L12.3706 48.9568C12.2034 49.0129 12.0363 49.069 11.8691 49.1251C11.7577 49.5737 11.5626 49.9943 11.284 50.3868C11.0611 50.8355 10.8104 51.1439 10.5317 51.3121C10.4203 51.5365 10.2253 51.6486 9.94664 51.6486C9.72375 51.7047 9.52872 51.7327 9.36154 51.7327ZM17.0514 32.3855C24.184 29.5816 30.4807 26.0486 35.9416 21.7866C41.4583 17.5246 46.1948 12.5897 50.1511 6.98182C50.8755 5.91632 51.2377 5.10318 51.2377 4.54239C51.2377 4.14984 51.1263 3.86944 50.9034 3.70121C50.6805 3.53297 50.4298 3.42081 50.1511 3.36473C49.7053 3.25258 49.3153 3.1965 48.9809 3.1965C47.6993 3.1965 46.4455 3.47689 45.2196 4.03768C43.938 4.59847 42.712 5.29945 41.5419 6.14064C40.3717 6.92574 39.2015 7.71084 38.0313 8.49595L34.4371 11.0195C31.7067 12.9262 29.1712 15.2534 26.8309 18.0013C24.4905 20.6931 22.4008 23.3849 20.562 26.0767C20.3948 26.3571 20.0605 26.9178 19.5589 27.759C19.0574 28.6002 18.5559 29.4694 18.0544 30.3667C17.6086 31.2079 17.2743 31.8808 17.0514 32.3855ZM2.00605 43.5733C2.06177 44.078 2.39611 44.4705 3.00907 44.7509C3.67775 44.9752 4.40215 45.1154 5.18228 45.1715C6.01814 45.2276 6.65896 45.2556 7.10474 45.2556C7.77343 45.2556 8.49783 45.2276 9.27796 45.1715C9.6123 44.2182 9.94664 43.1807 10.281 42.0591C10.671 40.8815 11.0054 39.9001 11.284 39.115C11.5069 38.5542 11.7298 37.9373 11.9527 37.2644C12.2313 36.5914 12.5099 35.8905 12.7885 35.1614C11.9527 35.7222 10.9218 36.4232 9.69588 37.2644C8.46997 38.1056 7.27191 38.9748 6.10172 39.8721C4.93153 40.7132 3.92851 41.4703 3.09265 42.1433C2.31252 42.8162 1.95032 43.2929 2.00605 43.5733Z" fill="white"/>
<path d="M57.1116 46.5174C56.0528 46.5174 55.217 46.1529 54.604 45.4239C54.0468 44.6388 53.7681 43.7695 53.7681 42.8162C53.7681 41.5264 54.0189 40.0964 54.5204 38.5262C55.0219 36.8999 55.4956 35.554 55.9414 34.4885C56.0528 34.0959 56.22 33.7595 56.4429 33.4791C56.6658 33.1426 56.7772 32.75 56.7772 32.3014C56.9444 32.1332 57.1116 31.8247 57.2787 31.3761C57.5016 30.9275 57.6409 30.591 57.6967 30.3667C57.4738 30.5349 57.1951 30.7873 56.8608 31.1238C56.5265 31.4602 56.22 31.6845 55.9414 31.7967L55.6906 31.7126C55.5234 31.4883 55.5234 31.2359 55.6906 30.9555C55.8021 30.8434 55.9414 30.6751 56.1085 30.4508C56.3314 30.1704 56.5543 29.9181 56.7772 29.6938C57.0001 29.4134 57.1951 29.161 57.3623 28.9367C57.5852 28.7124 57.7245 28.5441 57.7802 28.432C58.1703 27.9833 58.4768 27.6469 58.6997 27.4226C58.9226 27.1422 59.3126 26.8057 59.8699 26.4131C60.1485 26.4692 60.5943 26.5814 61.2072 26.7496C61.8759 26.8618 62.5167 27.058 63.1297 27.3384C63.7427 27.5628 64.0491 27.8712 64.0491 28.2637C64.1049 28.6002 63.882 29.133 63.3804 29.862C62.9347 30.5349 62.4331 31.2079 61.8759 31.8808C61.3744 32.5538 61.0122 33.0865 60.7893 33.4791C60.3992 34.0959 60.0928 34.6287 59.8699 35.0773C59.647 35.526 59.4519 35.9465 59.2848 36.3391L58.1146 39.3674C57.8917 39.9281 57.7245 40.4328 57.6131 40.8815C57.5016 41.3301 57.3902 41.8629 57.2787 42.4797C57.2787 42.5358 57.2509 42.648 57.1951 42.8162C57.1951 42.9284 57.1951 43.0405 57.1951 43.1527C57.1951 43.377 57.223 43.6013 57.2787 43.8256C57.3902 44.0499 57.5574 44.1621 57.7802 44.1621C58.0031 44.1621 58.3096 43.9939 58.6997 43.6574C59.8699 42.7601 60.845 41.8629 61.6252 40.9656C62.0709 40.517 62.4889 40.0683 62.8789 39.6197C63.269 39.1711 63.7148 38.6664 64.2163 38.1056C65.4422 36.7597 66.6681 35.4418 67.8941 34.152C69.1757 32.8061 70.3737 31.4602 71.4882 30.1143C71.7668 29.7779 72.0733 29.3573 72.4077 28.8526C72.742 28.2918 73.1042 28.0114 73.4943 28.0114H73.5779C73.9122 28.0114 74.5251 28.1796 75.4167 28.5161C76.3083 28.7965 76.7541 29.1049 76.7541 29.4414V29.7779C76.7541 30.2826 76.6148 30.7312 76.3362 31.1238C76.169 31.3481 76.0297 31.5444 75.9182 31.7126C75.8068 31.8808 75.6953 32.1051 75.5839 32.3855C75.5282 32.722 75.4446 33.0024 75.3331 33.2267C75.2217 33.451 75.0824 33.7314 74.9152 34.0679C74.4137 34.9091 73.94 36.0867 73.4943 37.6009C73.0485 39.115 72.8534 40.3487 72.9092 41.3021C72.9092 41.5825 72.937 42.0591 72.9928 42.7321C73.1042 43.3489 73.2714 43.7135 73.4943 43.8256C74.0515 43.7695 74.4973 43.405 74.8316 42.7321C75.2217 42.0591 75.556 41.5264 75.8346 41.1338C76.1133 40.7413 76.4476 40.545 76.8377 40.545C76.8934 40.7132 76.9213 40.9376 76.9213 41.218C76.9213 41.4423 76.8655 41.6666 76.7541 41.8909C76.6426 42.1152 76.5312 42.3676 76.4197 42.648C76.3083 42.9844 76.1968 43.3209 76.0854 43.6574C76.0297 43.9378 75.8904 44.2182 75.6675 44.4986C75.3331 45.1154 74.7202 45.4239 73.8286 45.4239C72.547 45.4239 71.3768 45.0594 70.318 44.3303C69.315 43.6013 68.7578 42.7321 68.6463 41.7227C68.5906 40.6572 68.702 39.4515 68.9807 38.1056C69.315 36.7597 69.6772 35.6101 70.0673 34.6567C70.0673 34.6007 70.0673 34.5446 70.0673 34.4885C70.123 34.4324 70.1509 34.3763 70.1509 34.3203C69.8165 34.6567 69.51 35.0212 69.2314 35.4138C68.9528 35.8063 68.5906 36.1148 68.1448 36.3391L67.3925 37.012C66.8353 38.0775 66.1388 39.0309 65.3029 39.8721C64.4671 40.7132 63.6591 41.5825 62.8789 42.4797C62.1545 43.377 61.3187 44.2743 60.3714 45.1715C59.4798 46.0688 58.3932 46.5174 57.1116 46.5174Z" fill="white"/>
<path d="M108.691 50.3027C108.356 50.3027 108.05 50.2747 107.771 50.2186C107.493 50.1625 107.214 50.1064 106.936 50.0504L106.685 50.2186C105.626 49.4335 104.762 48.6484 104.094 47.8633C103.425 47.1343 103.035 46.209 102.923 45.0874C102.868 44.3023 102.784 43.5452 102.673 42.8162C102.561 42.0311 102.506 41.246 102.506 40.4609C102.506 39.7319 102.589 39.0028 102.756 38.2738C102.812 37.9934 102.84 37.685 102.84 37.3485C102.84 37.012 102.84 36.7036 102.84 36.4232C102.84 36.0867 102.868 35.6942 102.923 35.2456C102.979 34.7969 103.091 34.2642 103.258 33.6473C103.314 33.5351 103.397 33.2828 103.509 32.8902C103.62 32.4416 103.648 32.1612 103.592 32.0491V31.9649C103.258 32.4136 102.896 32.9183 102.506 33.4791C102.171 33.9838 101.893 34.4885 101.67 34.9932C101.502 35.3297 101.085 36.0307 100.416 37.0962C99.8029 38.1617 99.1621 39.2272 98.4934 40.2927C97.8247 41.3021 97.3511 41.9189 97.0725 42.1433C96.5152 42.5358 95.9301 42.7321 95.3172 42.7321C94.9271 42.7321 94.3978 42.5919 93.7291 42.3115C93.0604 42.0311 92.4753 41.6946 91.9738 41.3021C91.4723 40.8534 91.2215 40.3768 91.2215 39.8721C91.2215 39.5356 91.3887 38.9187 91.723 38.0215C92.1131 37.1242 92.336 36.5073 92.3917 36.1709C92.7261 35.3297 93.0047 34.5165 93.2276 33.7314C93.5062 32.8902 93.6176 32.2173 93.5619 31.7126C93.5619 31.4883 93.534 31.3761 93.4783 31.3761C93.144 31.3761 92.6703 31.6565 92.0574 32.2173C91.5001 32.722 91.0822 33.1426 90.8036 33.4791C90.8036 33.5352 90.7757 33.6193 90.72 33.7314C90.6643 33.7875 90.6086 33.8716 90.5528 33.9838L90.3021 34.3203C90.3021 34.3763 90.2742 34.4324 90.2185 34.4885C89.9956 34.7128 89.5498 35.1614 88.8811 35.8344C88.2124 36.5073 87.8224 36.984 87.7109 37.2644C87.5995 37.4887 87.5438 37.6009 87.5438 37.6009C87.4323 37.7691 87.1816 38.1056 86.7915 38.6103C86.4014 39.115 85.9835 39.6197 85.5377 40.1244C85.0919 40.6291 84.7576 40.9656 84.5347 41.1338C84.3675 41.5264 84.1446 41.8909 83.866 42.2274C83.5874 42.5078 83.3088 42.8162 83.0302 43.1527C82.6958 43.4891 82.3058 44.1341 81.86 45.0874C81.4699 46.0407 81.1913 46.7417 81.0241 47.1903C80.9684 47.4147 80.7176 47.5829 80.2719 47.6951C79.8261 47.8072 79.5196 47.8633 79.3524 47.8633C79.1295 47.8633 78.7952 47.7231 78.3494 47.4427C77.9593 47.2184 77.7364 46.966 77.6807 46.6856C77.6807 46.5174 77.7922 46.0688 78.015 45.3397C78.2379 44.5546 78.4887 43.6854 78.7673 42.7321C79.1017 41.7227 79.4081 40.8254 79.6867 40.0403C80.0211 39.1991 80.244 38.6944 80.3554 38.5262C80.3554 38.3579 80.439 38.1897 80.6062 38.0215C80.6619 37.685 80.7734 37.1522 80.9405 36.4232C81.1634 35.6942 81.3863 34.9932 81.6092 34.3203C81.8878 33.5912 82.055 33.1426 82.1107 32.9744C82.6122 32.021 83.1416 30.8994 83.6988 29.6096C84.2561 28.3198 84.7297 27.03 85.1198 25.7402C85.5099 24.3943 85.677 23.2447 85.6213 22.2913C85.287 22.2913 84.9526 22.3474 84.6183 22.4596C84.3397 22.5157 84.0332 22.5437 83.6988 22.5437C82.9744 22.3194 82.8073 22.0109 83.1973 21.6184C83.4202 21.3941 83.866 21.2819 84.5347 21.2819C84.9805 21.3941 85.6492 21.5062 86.5407 21.6184C87.4323 21.6745 88.2682 21.8427 89.0483 22.1231C89.8841 22.3474 90.3299 22.7961 90.3857 23.469C90.4414 23.7494 90.2185 24.4504 89.717 25.572C89.2712 26.6375 88.7418 27.7871 88.1289 29.0208C87.8502 29.6377 87.5716 30.2545 87.293 30.8714C87.0144 31.4883 86.7358 32.1051 86.4571 32.722C86.2343 33.2828 86.0114 33.7875 85.7885 34.2361C85.6213 34.6848 85.482 35.0493 85.3705 35.3297C85.2591 35.6101 85.0919 35.8624 84.869 36.0867C84.7019 36.255 84.6461 36.5354 84.7019 36.9279C84.479 37.0962 84.3954 37.2924 84.4511 37.5168C84.7297 37.1242 85.1198 36.6195 85.6213 36.0026C86.1785 35.3297 86.7079 34.7128 87.2094 34.152C87.7109 33.5352 88.0453 33.1426 88.2124 32.9744H88.3796C89.2712 32.021 90.1628 31.0957 91.0543 30.1985C91.9459 29.3012 92.9211 28.5441 93.9798 27.9273L94.147 27.759C94.2027 27.759 94.2584 27.6749 94.3142 27.5067H94.8157L95.0664 27.4226C95.1779 27.4226 95.2615 27.4226 95.3172 27.4226C95.3729 27.3665 95.4565 27.3384 95.5679 27.3384C96.2924 27.3384 96.9889 27.6188 97.6576 28.1796C98.382 28.7404 98.772 29.3853 98.8278 30.1143C98.9392 31.0116 98.8278 31.8808 98.4934 32.722C98.1591 33.5071 97.8247 34.2922 97.4904 35.0773C97.2675 35.526 97.0725 36.0026 96.9053 36.5073C96.7381 36.956 96.571 37.4046 96.4038 37.8532C96.3481 38.0775 96.2088 38.4421 95.9859 38.9468C95.763 39.3954 95.6515 39.7319 95.6515 39.9562C95.9301 39.844 96.0973 39.7319 96.153 39.6197C96.2645 39.4515 96.3759 39.2552 96.4874 39.0309C96.5431 38.9187 96.5988 38.8066 96.6545 38.6944C96.7103 38.5822 96.766 38.4981 96.8217 38.4421C97.379 37.713 97.9083 37.012 98.4098 36.3391C98.9671 35.6101 99.5243 34.881 100.082 34.152C100.249 33.8716 100.416 33.6473 100.583 33.4791C100.806 33.3108 101.001 33.1146 101.168 32.8902C101.502 32.4416 101.837 31.9369 102.171 31.3761C102.506 30.7592 102.923 30.3387 103.425 30.1143C103.648 30.0022 103.871 29.9461 104.094 29.9461C104.372 29.89 104.623 29.862 104.846 29.862C105.18 29.862 105.654 29.9181 106.267 30.0302C106.88 30.0863 107.465 30.2265 108.022 30.4508C108.579 30.6191 108.858 30.8994 108.858 31.292C108.969 32.1893 108.83 33.0024 108.44 33.7314C108.05 34.4605 107.771 35.2175 107.604 36.0026C107.548 36.3391 107.409 37.0681 107.186 38.1897C107.019 39.3113 106.88 40.4328 106.768 41.5544C106.713 42.676 106.713 43.405 106.768 43.7415C106.824 43.7976 106.852 43.8537 106.852 43.9097C106.908 43.9097 106.963 43.9658 107.019 44.078C106.963 44.2462 106.936 44.5546 106.936 45.0033C106.88 45.1715 106.824 45.3678 106.768 45.5921C106.713 45.7603 106.685 45.9566 106.685 46.1809C106.796 46.6856 106.88 47.2745 106.936 47.9474C106.991 48.6764 107.353 49.097 108.022 49.2092V49.041L108.273 49.2092C108.774 48.9288 109.332 48.396 109.945 47.6109C110.613 46.8819 110.92 46.3211 110.864 45.9286H111.198C111.31 45.9286 111.366 45.9847 111.366 46.0968V46.265L111.031 49.1251C110.418 49.9102 109.638 50.3027 108.691 50.3027Z" fill="white"/>
<path d="M124.35 25.1514C123.793 25.1514 123.124 25.0953 122.344 24.9831C121.564 24.8149 121.146 24.3102 121.09 23.469C121.09 23.3568 121.285 23.0764 121.675 22.6278C122.121 22.1792 122.567 21.7306 123.013 21.2819C123.514 20.8333 123.821 20.5529 123.932 20.4407C124.099 20.3286 124.489 20.0201 125.102 19.5154C125.771 19.0107 126.217 18.9266 126.44 19.2631C126.495 19.3192 126.523 19.7117 126.523 20.4407V21.6184C126.523 21.7306 126.467 21.8427 126.356 21.9549C126.3 21.9549 126.161 22.011 125.938 22.1231C125.771 22.1792 125.687 22.2353 125.687 22.2913L125.771 22.3755C125.882 22.4315 125.966 22.5437 126.022 22.7119C126.133 22.8802 126.161 23.0204 126.105 23.1325C125.882 23.5251 125.604 23.9737 125.269 24.4784C124.935 24.927 124.629 25.1514 124.35 25.1514ZM116.577 46.8539C116.354 46.8539 115.88 46.7698 115.156 46.6015C114.487 46.4333 114.041 46.2931 113.818 46.1809C113.261 45.7884 112.871 45.4519 112.648 45.1715C112.425 44.8911 112.314 44.3023 112.314 43.405C112.314 41.7787 112.676 40.1805 113.4 38.6103C114.18 36.984 114.877 35.4418 115.49 33.9838C115.601 33.8716 115.601 33.7875 115.49 33.7314V33.5632C115.323 33.0024 115.462 32.3575 115.908 31.6285C116.354 30.8434 116.883 30.1143 117.496 29.4414C118.109 28.7684 118.583 28.3198 118.917 28.0955C119.196 28.0955 119.697 28.1516 120.421 28.2637C121.146 28.3198 121.842 28.432 122.511 28.6002C123.18 28.7684 123.514 29.0488 123.514 29.4414C123.514 29.4975 123.431 29.6377 123.263 29.862C123.096 30.0863 122.901 30.3387 122.678 30.6191L122.01 31.3761C121.787 31.6004 121.675 31.7406 121.675 31.7967C121.174 32.694 120.505 33.7875 119.669 35.0773C118.833 36.3671 118.053 37.685 117.329 39.0309C116.827 39.9281 116.409 40.7974 116.075 41.6385C115.796 42.4236 115.657 43.1246 115.657 43.7415C115.657 44.2462 115.769 44.6107 115.991 44.835C116.604 44.7229 117.245 44.3303 117.914 43.6574C118.638 42.9844 119.223 42.3676 119.669 41.8068H120.087C120.087 42.3676 119.892 42.8442 119.502 43.2368L119.251 43.4892C118.973 43.9939 118.61 44.6948 118.165 45.5921C117.775 46.4333 117.245 46.8539 116.577 46.8539Z" fill="white"/>
<path d="M126.82 44.5827C126.43 44.5827 125.957 44.4144 125.399 44.078C124.898 43.7415 124.619 43.3489 124.564 42.9003C124.508 41.8348 124.675 40.545 125.065 39.0309C125.511 37.4607 126.068 35.8344 126.737 34.152C127.405 32.4697 128.102 30.8994 128.826 29.4414C129.551 27.9273 130.164 26.6935 130.665 25.7402C130.944 25.1794 131.167 24.6467 131.334 24.1419C131.557 23.5812 131.863 23.0484 132.253 22.5437C132.699 22.5437 133.256 22.6559 133.925 22.8802C134.649 23.1045 135.29 23.3849 135.848 23.7214C136.46 24.0578 136.767 24.4504 136.767 24.899C136.767 25.4037 136.46 25.9645 135.848 26.5814C135.29 27.1422 134.844 27.6188 134.51 28.0114C133.34 29.3573 132.142 30.7873 130.916 32.3014C129.746 33.7595 128.826 35.3297 128.158 37.012C127.991 37.4046 127.851 37.7971 127.74 38.1897C127.684 38.5822 127.545 38.9468 127.322 39.2832C127.266 39.4515 127.183 39.6197 127.071 39.7879C126.96 39.9562 126.904 40.1525 126.904 40.3768L126.82 41.3021C127.266 40.7974 127.963 39.9842 128.91 38.8626C129.913 37.7411 130.972 36.5634 132.086 35.3297C133.256 34.0399 134.343 32.9183 135.346 31.9649C136.349 31.0116 137.046 30.4789 137.436 30.3667C137.659 30.2545 137.881 30.1985 138.104 30.1985C139.107 30.1985 140.055 30.5349 140.946 31.2079C141.894 31.8247 142.395 32.5538 142.451 33.395C142.451 33.6193 142.395 33.9838 142.284 34.4885C142.228 34.9932 142.172 35.3858 142.116 35.6661C142.061 36.2269 141.977 36.8438 141.866 37.5168C141.81 38.1336 141.782 38.7785 141.782 39.4515C141.782 40.4609 141.949 41.3301 142.284 42.0591C142.618 42.7321 143.231 43.0686 144.122 43.0686C144.345 42.9564 144.596 42.8723 144.875 42.8162C145.209 42.704 145.488 42.648 145.711 42.648C145.989 42.648 146.184 42.8162 146.296 43.1527C146.296 43.4891 146.101 43.7695 145.711 43.9939C145.321 44.2182 144.986 44.3303 144.708 44.3303H143.621C143.231 44.3303 142.869 44.3303 142.534 44.3303C142.2 44.2743 141.866 44.1901 141.531 44.078C140.974 43.9658 140.445 43.7135 139.943 43.3209C139.442 42.9284 139.052 42.3676 138.773 41.6385C138.494 40.7974 138.244 40.0683 138.021 39.4515C137.854 38.8346 137.77 38.0775 137.77 37.1803V34.825C137.77 34.4324 137.77 34.0679 137.77 33.7314C137.826 33.395 137.826 33.1426 137.77 32.9744C137.268 33.1426 136.739 33.5632 136.182 34.2361C135.625 34.9091 135.179 35.4418 134.844 35.8344C134.622 36.0587 134.427 36.1989 134.259 36.255L134.009 36.5073C133.786 36.7316 133.507 37.0681 133.173 37.5168C132.838 37.9093 132.532 38.2458 132.253 38.5262C132.086 38.6944 131.947 38.8066 131.835 38.8626L131.418 39.1991L130.832 39.7879C130.498 40.4048 130.108 40.9656 129.662 41.4703C129.272 41.9189 128.882 42.4517 128.492 43.0686C128.381 43.1807 128.325 43.2648 128.325 43.3209L128.158 43.6574C127.991 43.9378 127.823 44.1621 127.656 44.3303C127.489 44.4986 127.21 44.5827 126.82 44.5827Z" fill="white"/>
<path d="M171.322 46.4333C170.765 46.4333 170.124 46.2931 169.4 46.0127C168.675 45.7884 168.09 45.4799 167.645 45.0874C166.307 43.8537 165.527 42.4517 165.304 40.8815C165.081 39.2552 164.914 37.6009 164.803 35.9185C164.58 36.1989 164.273 36.5354 163.883 36.9279C163.549 37.2644 163.242 37.5728 162.964 37.8532C162.797 38.0215 162.629 38.2458 162.462 38.5262C162.295 38.7505 162.128 38.9748 161.961 39.1991C161.571 39.5917 161.208 39.9001 160.874 40.1244C160.54 40.2927 160.233 40.517 159.955 40.7974C159.843 40.9095 159.62 41.1899 159.286 41.6385C159.175 41.8629 159.007 42.0591 158.785 42.2274C158.562 42.3395 158.367 42.5078 158.199 42.7321C157.809 42.7882 157.475 42.9844 157.196 43.3209C156.973 43.6013 156.723 43.9097 156.444 44.2462C155.887 44.4705 155.274 44.779 154.605 45.1715C153.992 45.508 153.379 45.6762 152.766 45.6762C151.986 45.6762 151.122 45.4799 150.175 45.0874C149.284 44.6948 148.476 44.1621 147.751 43.4892C147.027 42.7601 146.609 41.975 146.497 41.1338H146.414V39.6197C146.414 38.7224 146.525 38.1336 146.748 37.8532C146.86 37.685 146.943 37.4887 146.999 37.2644C147.055 36.984 147.11 36.7597 147.166 36.5914L148.336 34.9091C148.504 34.6287 148.921 34.124 149.59 33.395C150.315 32.6659 151.067 31.9369 151.847 31.2079C152.627 30.4789 153.184 29.9741 153.519 29.6938C153.964 29.3012 154.633 28.8526 155.525 28.3479C156.416 27.8431 157.308 27.3384 158.199 26.8337C159.147 26.329 159.899 25.9365 160.456 25.6561L160.791 25.572C161.069 25.3476 161.515 25.1233 162.128 24.899C162.797 24.6186 163.27 24.4504 163.549 24.3943C163.883 24.2821 164.413 24.2261 165.137 24.2261C165.861 24.17 166.419 24.1139 166.809 24.0578C167.143 24.0578 167.422 24.0017 167.645 23.8896L169.4 24.3943C170.013 24.4504 170.737 24.7308 171.573 25.2355C172.409 25.7402 172.855 26.3851 172.91 27.1702C173.022 27.5628 172.994 27.8712 172.827 28.0955L172.075 27.6749C171.684 27.058 171.127 26.6935 170.403 26.5814C169.734 26.4131 169.038 26.329 168.313 26.329C166.753 26.329 165.081 26.7216 163.298 27.5067C161.515 28.2357 159.815 29.2171 158.199 30.4508C156.583 31.6285 155.135 32.9183 153.853 34.3203C152.627 35.7222 151.735 37.0681 151.178 38.3579C151.122 38.5262 151.067 38.6944 151.011 38.8626C151.011 39.0309 150.983 39.1711 150.927 39.2832C150.76 39.844 150.593 40.3768 150.426 40.8815C150.315 41.3862 150.287 41.947 150.342 42.5638C150.342 42.9564 150.398 43.1807 150.51 43.2368C150.621 43.2929 150.844 43.4891 151.178 43.8256L151.847 44.078L152.432 43.8256L153.101 43.5733C153.546 43.405 153.909 43.1807 154.187 42.9003C154.41 42.7882 154.605 42.7321 154.772 42.7321C154.94 42.676 155.023 42.6199 155.023 42.5638C155.413 42.4517 155.608 42.3115 155.608 42.1433C155.664 41.9189 155.831 41.6946 156.11 41.4703C156.946 40.6852 157.754 39.9281 158.534 39.1991C159.37 38.414 160.15 37.6009 160.874 36.7597C161.264 36.3111 161.738 35.8063 162.295 35.2456C162.908 34.6848 163.465 34.124 163.967 33.5632C164.134 33.395 164.273 33.2267 164.385 33.0585C164.552 32.8342 164.691 32.6379 164.803 32.4697C165.081 32.021 165.499 31.4042 166.056 30.6191C166.614 29.7779 167.254 29.3573 167.979 29.3573C168.09 29.3012 168.257 29.2732 168.48 29.2732C169.038 29.2732 169.483 29.4975 169.818 29.9461C170.152 30.3387 170.319 30.7592 170.319 31.2079C170.319 31.7687 170.208 32.3014 169.985 32.8061C169.762 33.2548 169.595 33.7314 169.483 34.2361C169.26 35.526 169.149 36.7877 169.149 38.0215C169.149 38.414 169.149 38.8066 169.149 39.1991C169.149 39.5917 169.177 40.0123 169.233 40.4609C169.4 41.6385 169.985 42.704 170.988 43.6574L171.322 43.7415C172.102 43.2929 172.632 42.8442 172.91 42.3956C173.245 41.947 173.691 41.3862 174.248 40.7132C174.248 40.7132 174.303 40.6852 174.415 40.6291C174.526 40.517 174.61 40.4609 174.666 40.4609C174.889 40.4609 175 40.573 175 40.7974V40.8815C175 41.1058 174.972 41.3301 174.916 41.5544C174.861 41.7227 174.805 41.947 174.749 42.2274C174.694 42.9003 174.359 43.7695 173.746 44.835C173.189 45.9005 172.381 46.4333 171.322 46.4333Z" fill="white"/>
</svg>
