<svg width="129" height="55" viewBox="0 0 129 55" fill="none" xmlns="http://www.w3.org/2000/svg">
<path d="M34.971 46.8444H39.2854V47.909H36.0221V49.8546H39.2854V50.9069H36.0221V53.5867H39.2854V54.639H34.971V46.8444Z" fill="#8199B7"/>
<path d="M41.6486 46.8566H42.7731L45.2114 52.3692L47.668 46.8566H48.8046L45.1991 54.9021L41.6486 46.8566Z" fill="#8199B7"/>
<path d="M51.5285 46.8444H55.8428V47.909H52.5796V49.8546H55.8428V50.9069H52.5796V53.5867H55.8428V54.639H51.5285V46.8444Z" fill="#8199B7"/>
<path d="M58.7928 46.5324L64.5493 52.4609V46.8444H65.6127V55L59.8561 49.102V54.639H58.7928V46.5324Z" fill="#8199B7"/>
<path d="M68.477 46.8444H73.2375V47.909H71.3798V54.639H70.3287V47.909H68.477V46.8444Z" fill="#8199B7"/>
<path d="M75.613 50.6928C75.613 49.567 76.0367 48.6024 76.8841 47.7989C77.7315 46.9953 78.75 46.5936 79.9396 46.5936C81.1007 46.5936 82.1009 46.9994 82.9401 47.8111C83.7794 48.6187 84.199 49.5793 84.199 50.6928C84.199 51.8715 83.7835 52.8688 82.9524 53.6846C82.1253 54.4963 81.1089 54.9021 79.903 54.9021C78.7133 54.9021 77.7009 54.4922 76.8658 53.6723C76.0306 52.8525 75.613 51.8593 75.613 50.6928ZM83.0685 50.7417C83.0685 49.8811 82.7588 49.1571 82.1396 48.5697C81.5203 47.9783 80.7585 47.6826 79.8541 47.6826C78.9944 47.6826 78.257 47.9824 77.6419 48.582C77.0308 49.1816 76.7252 49.9015 76.7252 50.7417C76.7252 51.5942 77.0389 52.3161 77.6663 52.9076C78.2978 53.4949 79.0698 53.7886 79.9824 53.7886C80.8216 53.7886 81.5448 53.4888 82.1518 52.8892C82.7629 52.2855 83.0685 51.5697 83.0685 50.7417Z" fill="#8199B7"/>
<path d="M92.0989 47.7071L91.2372 48.3984C91.0091 48.1619 90.8013 47.9865 90.6139 47.8723C90.4305 47.754 90.1637 47.6948 89.8133 47.6948C89.4304 47.6948 89.1187 47.7825 88.8783 47.9579C88.6421 48.1292 88.5239 48.3515 88.5239 48.6248C88.5239 48.8614 88.6278 49.0714 88.8356 49.255C89.0433 49.4345 89.3978 49.6323 89.8989 49.8485C90.4 50.0606 90.7891 50.2604 91.0661 50.448C91.3472 50.6316 91.5774 50.8355 91.7566 51.0599C91.9359 51.2842 92.0683 51.5208 92.1539 51.7696C92.2435 52.0184 92.2883 52.2815 92.2883 52.5588C92.2883 53.2074 92.052 53.76 91.5794 54.2169C91.1109 54.6737 90.5426 54.9021 89.8744 54.9021C89.2226 54.9021 88.6461 54.7247 88.145 54.3698C87.648 54.0109 87.265 53.4745 86.9961 52.7607L88.0595 52.4609C88.4465 53.3379 89.0393 53.7764 89.8378 53.7764C90.2248 53.7764 90.5467 53.6601 90.8033 53.4276C91.06 53.1951 91.1883 52.9015 91.1883 52.5466C91.1883 52.3345 91.1211 52.1224 90.9866 51.9103C90.8522 51.6941 90.6852 51.5167 90.4855 51.378C90.2859 51.2393 89.9661 51.0823 89.5261 50.9069C89.0902 50.7274 88.7541 50.5643 88.5178 50.4174C88.2856 50.2665 88.0839 50.0891 87.9128 49.8852C87.7417 49.6771 87.6154 49.4712 87.5339 49.2672C87.4565 49.0633 87.4178 48.8451 87.4178 48.6126C87.4178 48.0538 87.6419 47.5786 88.09 47.187C88.5382 46.7914 89.082 46.5936 89.7217 46.5936C90.1454 46.5936 90.5752 46.6853 91.0111 46.8689C91.447 47.0524 91.8096 47.3318 92.0989 47.7071Z" fill="#8199B7"/>
<path d="M6.9008 37.9373C6.73649 37.9373 6.53111 37.8962 6.28465 37.814C6.0382 37.7317 5.89443 37.5878 5.85335 37.3822C5.81228 37.2999 5.79174 37.1765 5.79174 37.012C5.75066 36.8064 5.75066 36.6214 5.79174 36.4569H5.48367C4.82645 36.4569 4.08708 36.354 3.26556 36.1484C2.48511 35.9839 1.84843 35.5932 1.35551 34.9764C1.19121 34.7708 0.985828 34.3595 0.739371 33.7426C0.53399 33.1258 0.349147 32.5295 0.184843 31.9537C0.0616143 31.3369 0 30.9667 0 30.8434C0 30.3087 0.225919 29.733 0.677757 29.1161C1.12959 28.4993 1.66358 27.9647 2.27973 27.5123C2.89587 27.0599 3.47094 26.8337 4.00493 26.8337C4.25138 26.587 4.7443 26.2991 5.48367 25.9701C6.26412 25.6411 7.0651 25.3327 7.88662 25.0448C8.74922 24.7569 9.44752 24.5513 9.98151 24.4279C10.269 23.7288 10.536 23.0708 10.7825 22.454C11.2343 21.3025 11.7067 20.1921 12.1996 19.1229C12.7336 18.0537 13.2471 17.1695 13.74 16.4704C15.2598 14.1674 16.6975 12.1523 18.053 10.4251C19.4496 8.65671 21.0105 7.07341 22.7357 5.67518C24.5019 4.23582 26.679 2.85815 29.2668 1.54217C29.8829 1.21317 30.4785 0.925302 31.0536 0.678556C31.6697 0.390684 32.3269 0.226185 33.0252 0.185061C33.6414 0.185061 34.2575 0.123374 34.8737 0C35.3255 0.0822504 35.9006 0.246749 36.5989 0.493495C37.3382 0.699117 37.9955 0.986988 38.5705 1.35711C39.1456 1.68611 39.4537 2.09735 39.4947 2.59085C39.5769 3.78346 39.2483 4.97606 38.5089 6.16867C37.7695 7.36129 37.0507 8.36884 36.3524 9.19133C34.9969 10.8363 33.5182 12.4402 31.9162 14.0029C30.3142 15.5656 28.5685 16.9227 26.679 18.0742C25.8985 18.5677 25.077 19.0818 24.2144 19.6164C23.3929 20.1099 22.5714 20.5828 21.7498 21.0352C20.5586 21.652 19.3263 22.2278 18.053 22.7624C16.8207 23.2559 15.5679 23.7494 14.2945 24.2429C13.7194 24.4896 13.1649 24.8598 12.6309 25.3532C12.0969 25.8467 11.604 26.3197 11.1522 26.772C10.8236 27.101 10.4539 27.6768 10.0431 28.4993C9.67344 29.2806 9.36537 30.1031 9.11891 30.9667C8.87245 31.7892 8.76976 32.4267 8.81084 32.879V33.0024C9.30375 32.9613 9.79667 32.9407 10.2896 32.9407C10.7825 32.8996 11.2549 32.8585 11.7067 32.8173C12.4872 32.7351 13.2471 32.6323 13.9864 32.5089C14.7258 32.3855 15.4857 32.3033 16.2662 32.2622V32.1388L17.5601 32.0771C17.7244 32.036 18.1967 31.9537 18.9772 31.8304C19.7576 31.707 20.6202 31.563 21.565 31.3985C22.5508 31.234 23.434 31.0901 24.2144 30.9667C25.0359 30.8434 25.5494 30.7817 25.7548 30.7817C26.0012 30.6583 26.3093 30.5966 26.679 30.5966C27.0897 30.5555 27.4389 30.5349 27.7264 30.5349C27.8496 30.5349 27.9729 30.5555 28.0961 30.5966C28.2604 30.5966 28.4042 30.5966 28.5274 30.5966C28.6096 30.5966 28.9382 30.5761 29.5132 30.5349C30.1294 30.4527 30.4785 30.391 30.5607 30.3499C31.4643 30.391 32.4091 30.4321 33.3949 30.4732C34.4218 30.4732 35.4077 30.5966 36.3524 30.8434C37.2972 31.049 38.1392 31.4808 38.8786 32.1388C39.3304 32.55 39.7207 33.1669 40.0493 33.9894C40.3779 34.8119 40.6243 35.6138 40.7886 36.3952C40.9529 37.2177 41.0351 37.8551 41.0351 38.3075C41.0351 38.7187 40.9529 39.1094 40.7886 39.4795C40.6243 39.8908 40.3163 40.1581 39.8644 40.2814C39.7412 40.3226 39.618 40.3431 39.4947 40.3431C39.3715 40.3842 39.2483 40.4459 39.125 40.5282C38.8375 40.6104 38.5294 40.7338 38.2008 40.8983C37.8722 41.1039 37.5436 41.2067 37.215 41.2067H36.9069V41.0834H36.8453V40.7132H36.9686C37.5847 40.2609 38.2008 39.7057 38.817 39.0477C39.4742 38.3897 39.8028 37.6906 39.8028 36.9504C39.8028 36.0045 39.3715 35.2437 38.5089 34.6679C37.6874 34.0922 36.6399 33.6604 35.3666 33.3725C34.1343 33.0435 32.902 32.8379 31.6697 32.7557C30.4374 32.6323 29.4105 32.5706 28.589 32.5706C27.6443 32.5706 26.5557 32.6528 25.3235 32.8173C24.1322 32.9407 22.8794 33.1258 21.565 33.3725L14.6642 34.7296C14.3767 34.7708 14.1097 34.8324 13.8632 34.9147C13.6578 35.0381 13.4524 35.1409 13.2471 35.2231C13.0006 35.2643 12.7336 35.3054 12.4461 35.3465C12.1996 35.4287 11.8916 35.4699 11.5219 35.4699C11.4808 35.4699 11.3781 35.511 11.2138 35.5932L10.8441 35.7166L9.73505 35.6549C9.61182 35.6549 9.46806 35.6549 9.30375 35.6549V35.9634L9.11891 35.9017C8.99568 35.9428 8.87245 35.9839 8.74922 36.0251C8.66707 36.354 8.5233 36.6625 8.31792 36.9504C8.15362 37.2793 7.96878 37.5055 7.76339 37.6289C7.68124 37.7934 7.53748 37.8757 7.3321 37.8757C7.16779 37.9168 7.02402 37.9373 6.9008 37.9373ZM12.5693 23.7494C17.8271 21.6932 22.4687 19.1023 26.4941 15.9769C30.5607 12.8514 34.0521 9.23245 36.9686 5.12C37.5025 4.33864 37.7695 3.74233 37.7695 3.33108C37.7695 3.04321 37.6874 2.83759 37.5231 2.71422C37.3588 2.59084 37.1739 2.50859 36.9686 2.46747C36.6399 2.38522 36.3524 2.3441 36.106 2.3441C35.1612 2.3441 34.237 2.54972 33.3333 2.96097C32.3886 3.37221 31.4849 3.88627 30.6223 4.50313C29.7597 5.07888 28.8971 5.65462 28.0345 6.23036L25.3851 8.08096C23.3723 9.4792 21.5034 11.1859 19.7782 13.201C18.053 15.1749 16.5126 17.1489 15.1571 19.1229C15.0339 19.3285 14.7874 19.7398 14.4177 20.3566C14.048 20.9735 13.6784 21.6109 13.3087 22.2689C12.9801 22.8858 12.7336 23.3793 12.5693 23.7494ZM1.47874 31.9537C1.51982 32.3238 1.76627 32.6117 2.21811 32.8173C2.71103 32.9818 3.24502 33.0847 3.82008 33.1258C4.43623 33.1669 4.9086 33.1875 5.23721 33.1875C5.73012 33.1875 6.26411 33.1669 6.83918 33.1258C7.08564 32.4267 7.3321 31.6659 7.57855 30.8434C7.86609 29.9798 8.11254 29.2601 8.31792 28.6843C8.48223 28.2731 8.64653 27.8207 8.81084 27.3272C9.01622 26.8337 9.2216 26.3197 9.42698 25.7851C8.81084 26.1963 8.05093 26.7104 7.14725 27.3272C6.24358 27.9441 5.36044 28.5815 4.49784 29.2395C3.63524 29.8564 2.89587 30.4116 2.27973 30.9051C1.70466 31.3985 1.43767 31.7481 1.47874 31.9537Z" fill="#8199B7"/>
<path d="M42.0994 34.1128C41.3189 34.1128 40.7028 33.8455 40.251 33.3108C39.8402 32.7351 39.6348 32.0977 39.6348 31.3985C39.6348 30.4527 39.8197 29.404 40.1893 28.2525C40.559 27.0599 40.9082 26.0729 41.2368 25.2916C41.3189 25.0037 41.4422 24.7569 41.6065 24.5513C41.7708 24.3046 41.8529 24.0167 41.8529 23.6877C41.9761 23.5643 42.0994 23.3381 42.2226 23.0092C42.3869 22.6802 42.4896 22.4334 42.5307 22.2689C42.3664 22.3923 42.161 22.5773 41.9145 22.8241C41.6681 23.0708 41.4422 23.2353 41.2368 23.3176L41.0519 23.2559C40.9287 23.0914 40.9287 22.9063 41.0519 22.7007C41.1341 22.6185 41.2368 22.4951 41.36 22.3306C41.5243 22.125 41.6886 21.9399 41.8529 21.7754C42.0172 21.5698 42.161 21.3847 42.2842 21.2202C42.4485 21.0557 42.5512 20.9324 42.5923 20.8501C42.8798 20.5211 43.1057 20.2744 43.27 20.1099C43.4344 19.9043 43.7219 19.6575 44.1326 19.3696C44.338 19.4108 44.6666 19.493 45.1185 19.6164C45.6114 19.6986 46.0838 19.8426 46.5356 20.0482C46.9874 20.2127 47.2134 20.4389 47.2134 20.7267C47.2544 20.9735 47.0901 21.3642 46.7204 21.8988C46.3918 22.3923 46.0222 22.8858 45.6114 23.3793C45.2417 23.8728 44.9747 24.2634 44.8104 24.5513C44.5229 25.0037 44.297 25.3944 44.1326 25.7234C43.9683 26.0524 43.8246 26.3608 43.7013 26.6487L42.8387 28.8694C42.6744 29.2806 42.5512 29.6508 42.4691 29.9798C42.3869 30.3087 42.3048 30.6994 42.2226 31.1518C42.2226 31.1929 42.2021 31.2752 42.161 31.3985C42.161 31.4808 42.161 31.563 42.161 31.6453C42.161 31.8098 42.1815 31.9743 42.2226 32.1388C42.3048 32.3033 42.428 32.3855 42.5923 32.3855C42.7566 32.3855 42.9825 32.2622 43.27 32.0154C44.1326 31.3574 44.8515 30.6994 45.4265 30.0414C45.7552 29.7124 46.0632 29.3834 46.3508 29.0545C46.6383 28.7255 46.9669 28.3553 47.3366 27.9441C48.2403 26.9571 49.1439 25.9907 50.0476 25.0448C50.9924 24.0578 51.8755 23.0708 52.697 22.0839C52.9024 21.8371 53.1283 21.5287 53.3748 21.1586C53.6212 20.7473 53.8882 20.5417 54.1758 20.5417H54.2374C54.4838 20.5417 54.9357 20.6651 55.5929 20.9118C56.2501 21.1174 56.5787 21.3436 56.5787 21.5904V21.8371C56.5787 22.2072 56.476 22.5362 56.2707 22.8241C56.1474 22.9886 56.0447 23.1325 55.9626 23.2559C55.8804 23.3793 55.7983 23.5438 55.7161 23.7494C55.675 23.9961 55.6134 24.2018 55.5313 24.3663C55.4491 24.5308 55.3464 24.7364 55.2232 24.9831C54.8535 25.6 54.5044 26.4636 54.1758 27.574C53.8472 28.6843 53.7034 29.5891 53.7445 30.2882C53.7445 30.4938 53.765 30.8434 53.8061 31.3369C53.8882 31.7892 54.0115 32.0565 54.1758 32.1388C54.5865 32.0977 54.9151 31.8304 55.1616 31.3369C55.4491 30.8434 55.6956 30.4527 55.901 30.1648C56.1063 29.8769 56.3528 29.733 56.6403 29.733C56.6814 29.8564 56.702 30.0209 56.702 30.2265C56.702 30.391 56.6609 30.5555 56.5787 30.72C56.4966 30.8845 56.4144 31.0696 56.3323 31.2752C56.2501 31.5219 56.168 31.7687 56.0858 32.0154C56.0447 32.221 55.942 32.4267 55.7777 32.6323C55.5313 33.0847 55.0795 33.3108 54.4222 33.3108C53.4775 33.3108 52.6149 33.0435 51.8344 32.5089C51.0951 31.9743 50.6843 31.3369 50.6021 30.5966C50.5611 29.8153 50.6432 28.9311 50.8486 27.9441C51.0951 26.9571 51.3621 26.1141 51.6496 25.4149C51.6496 25.3738 51.6496 25.3327 51.6496 25.2916C51.6907 25.2504 51.7112 25.2093 51.7112 25.1682C51.4647 25.4149 51.2388 25.6822 51.0334 25.9701C50.8281 26.258 50.5611 26.4842 50.2325 26.6487L49.6779 27.1422C49.2672 27.9235 48.7537 28.6226 48.1376 29.2395C47.5214 29.8564 46.9258 30.4938 46.3508 31.1518C45.8168 31.8098 45.2006 32.4678 44.5023 33.1258C43.8451 33.7838 43.0441 34.1128 42.0994 34.1128Z" fill="#8199B7"/>
<path d="M80.1207 36.8887C79.8742 36.8887 79.6483 36.8681 79.4429 36.827C79.2375 36.7859 79.0322 36.7447 78.8268 36.7036L78.6419 36.827C77.8615 36.2512 77.2248 35.6755 76.7319 35.0998C76.239 34.5651 75.9514 33.8866 75.8693 33.0641C75.8282 32.4883 75.7666 31.9332 75.6844 31.3985C75.6023 30.8228 75.5612 30.2471 75.5612 29.6713C75.5612 29.1367 75.6228 28.6021 75.746 28.0675C75.7871 27.8618 75.8077 27.6357 75.8077 27.3889C75.8077 27.1422 75.8077 26.916 75.8077 26.7104C75.8077 26.4636 75.8282 26.1757 75.8693 25.8467C75.9104 25.5177 75.9925 25.1271 76.1157 24.6747C76.1568 24.5924 76.2184 24.4074 76.3006 24.1195C76.3827 23.7905 76.4033 23.5849 76.3622 23.5026V23.441C76.1157 23.77 75.8487 24.1401 75.5612 24.5513C75.3148 24.9214 75.1094 25.2916 74.9451 25.6617C74.8218 25.9084 74.5138 26.4225 74.0209 27.2038C73.569 27.9852 73.0966 28.7666 72.6037 29.5479C72.1108 30.2882 71.7617 30.7406 71.5563 30.9051C71.1455 31.1929 70.7142 31.3369 70.2624 31.3369C69.9749 31.3369 69.5846 31.2341 69.0917 31.0284C68.5988 30.8228 68.1675 30.5761 67.7978 30.2882C67.4281 29.9592 67.2433 29.6096 67.2433 29.2395C67.2433 28.9928 67.3665 28.5404 67.613 27.8824C67.9005 27.2244 68.0648 26.772 68.1059 26.5253C68.3523 25.9084 68.5577 25.3121 68.722 24.7364C68.9274 24.1195 69.0096 23.626 68.9685 23.2559C68.9685 23.0914 68.948 23.0092 68.9069 23.0092C68.6604 23.0092 68.3113 23.2148 67.8594 23.626C67.4487 23.9961 67.1406 24.3046 66.9352 24.5513C66.9352 24.5924 66.9147 24.6541 66.8736 24.7364C66.8325 24.7775 66.7914 24.8392 66.7504 24.9214L66.5655 25.1682C66.5655 25.2093 66.545 25.2504 66.5039 25.2916C66.3396 25.4561 66.011 25.7851 65.5181 26.2785C65.0252 26.772 64.7376 27.1216 64.6555 27.3272C64.5733 27.4917 64.5323 27.574 64.5323 27.574C64.4501 27.6973 64.2653 27.9441 63.9777 28.3142C63.6902 28.6843 63.3821 29.0545 63.0535 29.4246C62.7249 29.7947 62.4784 30.0414 62.3141 30.1648C62.1909 30.4527 62.0266 30.72 61.8212 30.9667C61.6159 31.1724 61.4105 31.3985 61.2051 31.6453C60.9586 31.892 60.6711 32.365 60.3425 33.0641C60.055 33.7632 59.8496 34.2773 59.7263 34.6063C59.6853 34.7708 59.5004 34.8941 59.1718 34.9764C58.8432 35.0586 58.6173 35.0998 58.4941 35.0998C58.3298 35.0998 58.0833 34.9969 57.7547 34.7913C57.4672 34.6268 57.3029 34.4418 57.2618 34.2361C57.2618 34.1128 57.3439 33.7838 57.5082 33.2491C57.6725 32.6734 57.8574 32.036 58.0628 31.3369C58.3092 30.5966 58.5351 29.9386 58.7405 29.3629C58.987 28.746 59.1513 28.3759 59.2334 28.2525C59.2334 28.1292 59.2951 28.0058 59.4183 27.8824C59.4594 27.6357 59.5415 27.245 59.6647 26.7104C59.829 26.1757 59.9933 25.6617 60.1576 25.1682C60.363 24.6336 60.4863 24.3046 60.5273 24.1812C60.897 23.4821 61.2872 22.6596 61.698 21.7137C62.1088 20.7679 62.4579 19.822 62.7454 18.8761C63.033 17.8892 63.1562 17.0461 63.1151 16.347C62.8687 16.347 62.6222 16.3881 62.3758 16.4704C62.1704 16.5115 61.9445 16.532 61.698 16.532C61.164 16.3675 61.0408 16.1414 61.3283 15.8535C61.4926 15.689 61.8212 15.6067 62.3141 15.6067C62.6427 15.689 63.1357 15.7712 63.7929 15.8535C64.4501 15.8946 65.0662 16.018 65.6413 16.2236C66.2575 16.3881 66.5861 16.7171 66.6271 17.2106C66.6682 17.4162 66.5039 17.9303 66.1342 18.7528C65.8056 19.5341 65.4154 20.3772 64.9636 21.2819C64.7582 21.7343 64.5528 22.1867 64.3474 22.639C64.142 23.0914 63.9366 23.5438 63.7313 23.9961C63.567 24.4074 63.4027 24.7775 63.2384 25.1065C63.1151 25.4355 63.0124 25.7028 62.9303 25.9084C62.8481 26.114 62.7249 26.2991 62.5606 26.4636C62.4374 26.587 62.3963 26.7926 62.4374 27.0805C62.2731 27.2038 62.2115 27.3478 62.2525 27.5123C62.4579 27.2244 62.7454 26.8543 63.1151 26.4019C63.5259 25.9084 63.9161 25.4561 64.2858 25.0448C64.6555 24.5924 64.9019 24.3046 65.0252 24.1812H65.1484C65.8056 23.4821 66.4628 22.8035 67.1201 22.1455C67.7773 21.4875 68.4961 20.9324 69.2766 20.48L69.3998 20.3566C69.4409 20.3566 69.4819 20.2949 69.523 20.1716H69.8927L70.0775 20.1099C70.1597 20.1099 70.2213 20.1099 70.2624 20.1099C70.3035 20.0688 70.3651 20.0482 70.4472 20.0482C70.9812 20.0482 71.4947 20.2538 71.9876 20.6651C72.5216 21.0763 72.8091 21.5492 72.8502 22.0839C72.9323 22.7418 72.8502 23.3793 72.6037 23.9961C72.3573 24.5719 72.1108 25.1476 71.8644 25.7234C71.7001 26.0524 71.5563 26.4019 71.4331 26.772C71.3098 27.101 71.1866 27.43 71.0634 27.759C71.0223 27.9235 70.9196 28.1908 70.7553 28.561C70.591 28.89 70.5088 29.1367 70.5088 29.3012C70.7142 29.2189 70.8374 29.1367 70.8785 29.0545C70.9607 28.9311 71.0428 28.7871 71.125 28.6226C71.1661 28.5404 71.2071 28.4581 71.2482 28.3759C71.2893 28.2936 71.3304 28.232 71.3714 28.1908C71.7822 27.6562 72.1724 27.1422 72.5421 26.6487C72.9529 26.114 73.3636 25.5794 73.7744 25.0448C73.8976 24.8392 74.0209 24.6747 74.1441 24.5513C74.3084 24.4279 74.4522 24.284 74.5754 24.1195C74.8218 23.7905 75.0683 23.4204 75.3148 23.0092C75.5612 22.5568 75.8693 22.2484 76.239 22.0839C76.4033 22.0016 76.5676 21.9605 76.7319 21.9605C76.9373 21.9194 77.1221 21.8988 77.2864 21.8988C77.5329 21.8988 77.882 21.9399 78.3339 22.0222C78.7857 22.0633 79.217 22.1661 79.6277 22.3306C80.0385 22.454 80.2439 22.6596 80.2439 22.9475C80.326 23.6055 80.2234 24.2018 79.9358 24.7364C79.6483 25.271 79.4429 25.8262 79.3197 26.4019C79.2786 26.6487 79.1759 27.1833 79.0116 28.0058C78.8884 28.8283 78.7857 29.6508 78.7035 30.4732C78.6625 31.2957 78.6625 31.8304 78.7035 32.0771C78.7446 32.1182 78.7652 32.1594 78.7652 32.2005C78.8062 32.2005 78.8473 32.2416 78.8884 32.3238C78.8473 32.4472 78.8268 32.6734 78.8268 33.0024C78.7857 33.1258 78.7446 33.2697 78.7035 33.4342C78.6625 33.5576 78.6419 33.7015 78.6419 33.866C78.7241 34.2361 78.7857 34.6679 78.8268 35.1614C78.8678 35.6961 79.1348 36.0045 79.6277 36.0867V35.9634L79.8126 36.0867C80.1823 35.8811 80.593 35.4904 81.0449 34.9147C81.5378 34.3801 81.7637 33.9688 81.7226 33.681H81.9691C82.0512 33.681 82.0923 33.7221 82.0923 33.8043V33.9277L81.8459 36.0251C81.394 36.6008 80.819 36.8887 80.1207 36.8887Z" fill="#8199B7"/>
<path d="M91.6637 18.4443C91.2529 18.4443 90.76 18.4032 90.185 18.321C89.6099 18.1976 89.3018 17.8275 89.2607 17.2106C89.2607 17.1284 89.4045 16.9227 89.692 16.5937C90.0207 16.2647 90.3493 15.9357 90.6779 15.6067C91.0476 15.2777 91.2735 15.0721 91.3556 14.9899C91.4789 14.9076 91.7664 14.6814 92.2182 14.3113C92.7112 13.9412 93.0398 13.8795 93.2041 14.1263C93.2451 14.1674 93.2657 14.4553 93.2657 14.9899V15.8535C93.2657 15.9357 93.2246 16.018 93.1424 16.1002C93.1014 16.1002 92.9987 16.1414 92.8344 16.2236C92.7112 16.2647 92.6495 16.3059 92.6495 16.347L92.7112 16.4087C92.7933 16.4498 92.8549 16.532 92.896 16.6554C92.9781 16.7788 92.9987 16.8816 92.9576 16.9639C92.7933 17.2517 92.5879 17.5807 92.3415 17.9508C92.095 18.2798 91.8691 18.4443 91.6637 18.4443ZM85.9336 34.3595C85.7693 34.3595 85.4201 34.2978 84.8861 34.1744C84.3932 34.0511 84.0646 33.9483 83.9003 33.866C83.4896 33.5781 83.202 33.3314 83.0377 33.1258C82.8734 32.9202 82.7913 32.4883 82.7913 31.8304C82.7913 30.6377 83.0583 29.4657 83.5922 28.3142C84.1673 27.1216 84.6808 25.9907 85.1326 24.9214C85.2148 24.8392 85.2148 24.7775 85.1326 24.7364V24.613C85.0094 24.2018 85.1121 23.7288 85.4407 23.1942C85.7693 22.6185 86.1595 22.0839 86.6113 21.5904C87.0632 21.0969 87.4123 20.7679 87.6588 20.6034C87.8642 20.6034 88.2338 20.6445 88.7678 20.7267C89.3018 20.7679 89.8153 20.8501 90.3082 20.9735C90.8011 21.0969 91.0476 21.3025 91.0476 21.5904C91.0476 21.6315 90.986 21.7343 90.8627 21.8988C90.7395 22.0633 90.5957 22.2483 90.4314 22.454L89.9385 23.0092C89.7742 23.1736 89.692 23.2765 89.692 23.3176C89.3224 23.9756 88.8295 24.7775 88.2133 25.7234C87.5972 26.6692 87.0221 27.6357 86.4881 28.6226C86.1184 29.2806 85.8103 29.9181 85.5639 30.5349C85.3585 31.1107 85.2558 31.6247 85.2558 32.0771C85.2558 32.4472 85.338 32.7145 85.5023 32.879C85.9541 32.7968 86.4265 32.5089 86.9194 32.0154C87.4534 31.5219 87.8847 31.0696 88.2133 30.6583H88.5214C88.5214 31.0696 88.3776 31.4191 88.0901 31.707L87.9052 31.892C87.6999 32.2622 87.4329 32.7762 87.1042 33.4342C86.8167 34.0511 86.4265 34.3595 85.9336 34.3595Z" fill="#8199B7"/>
<path d="M93.4847 32.694C93.1972 32.694 92.848 32.5706 92.4373 32.3238C92.0676 32.0771 91.8622 31.7892 91.8211 31.4602C91.78 30.6789 91.9033 29.733 92.1908 28.6226C92.5194 27.4712 92.9302 26.2785 93.4231 25.0448C93.916 23.8111 94.4295 22.6596 94.9634 21.5904C95.4974 20.48 95.9493 19.5753 96.319 18.8761C96.5243 18.4649 96.6886 18.0742 96.8119 17.7041C96.9762 17.2928 97.2021 16.9022 97.4896 16.532C97.8182 16.532 98.229 16.6143 98.7219 16.7788C99.2559 16.9433 99.7283 17.1489 100.139 17.3957C100.591 17.6424 100.817 17.9303 100.817 18.2593C100.817 18.6294 100.591 19.0406 100.139 19.493C99.7283 19.9043 99.3997 20.2538 99.1532 20.5417C98.2906 21.5287 97.4075 22.5773 96.5038 23.6877C95.6412 24.7569 94.9634 25.9084 94.4705 27.1422C94.3473 27.43 94.2446 27.7179 94.1625 28.0058C94.1214 28.2936 94.0187 28.561 93.8544 28.8077C93.8133 28.9311 93.7517 29.0545 93.6695 29.1778C93.5874 29.3012 93.5463 29.4451 93.5463 29.6096L93.4847 30.2882C93.8133 29.9181 94.3268 29.3218 95.025 28.4993C95.7644 27.6768 96.5449 26.8132 97.3664 25.9084C98.229 24.9626 99.03 24.1401 99.7693 23.441C100.509 22.7418 101.022 22.3512 101.31 22.2689C101.474 22.1867 101.638 22.1455 101.803 22.1455C102.542 22.1455 103.24 22.3923 103.898 22.8858C104.596 23.3381 104.965 23.8728 105.007 24.4896C105.007 24.6541 104.965 24.9214 104.883 25.2916C104.842 25.6617 104.801 25.9496 104.76 26.1552C104.719 26.5664 104.657 27.0188 104.575 27.5123C104.534 27.9647 104.514 28.4376 104.514 28.9311C104.514 29.6713 104.637 30.3087 104.883 30.8434C105.13 31.3369 105.582 31.5836 106.239 31.5836C106.403 31.5014 106.588 31.4397 106.793 31.3985C107.04 31.3163 107.245 31.2752 107.41 31.2752C107.615 31.2752 107.759 31.3985 107.841 31.6453C107.841 31.892 107.697 32.0977 107.41 32.2622C107.122 32.4267 106.876 32.5089 106.67 32.5089H105.869C105.582 32.5089 105.315 32.5089 105.068 32.5089C104.822 32.4678 104.575 32.4061 104.329 32.3238C103.918 32.2416 103.528 32.0565 103.158 31.7687C102.788 31.4808 102.501 31.0696 102.296 30.5349C102.09 29.9181 101.905 29.3834 101.741 28.9311C101.618 28.4787 101.556 27.9235 101.556 27.2655V25.5383C101.556 25.2504 101.556 24.9831 101.556 24.7364C101.597 24.4896 101.597 24.3046 101.556 24.1812C101.186 24.3046 100.796 24.613 100.385 25.1065C99.9747 25.6 99.6461 25.9907 99.3997 26.2785C99.2354 26.443 99.0916 26.5459 98.9684 26.587L98.7835 26.772C98.6192 26.9365 98.4138 27.1833 98.1674 27.5123C97.9209 27.8002 97.695 28.0469 97.4896 28.2525C97.3664 28.3759 97.2637 28.4581 97.1816 28.4993L96.8735 28.746L96.4422 29.1778C96.1957 29.6302 95.9082 30.0414 95.5796 30.4116C95.292 30.7406 95.0045 31.1312 94.717 31.5836C94.6348 31.6659 94.5938 31.7275 94.5938 31.7687L94.4705 32.0154C94.3473 32.221 94.2241 32.3855 94.1008 32.5089C93.9776 32.6323 93.7722 32.694 93.4847 32.694Z" fill="#8199B7"/>
<path d="M126.289 34.0511C125.878 34.0511 125.406 33.9483 124.872 33.7426C124.338 33.5781 123.907 33.352 123.578 33.0641C122.592 32.1594 122.017 31.1312 121.853 29.9798C121.688 28.7871 121.565 27.574 121.483 26.3402C121.319 26.5459 121.093 26.7926 120.805 27.0805C120.559 27.3272 120.333 27.5534 120.128 27.759C120.004 27.8824 119.881 28.0469 119.758 28.2525C119.635 28.417 119.511 28.5815 119.388 28.746C119.101 29.0339 118.834 29.2601 118.587 29.4246C118.341 29.5479 118.115 29.7124 117.909 29.9181C117.827 30.0003 117.663 30.2059 117.417 30.5349C117.334 30.6994 117.211 30.8434 117.047 30.9667C116.883 31.049 116.739 31.1724 116.616 31.3369C116.328 31.378 116.082 31.5219 115.876 31.7687C115.712 31.9743 115.527 32.2005 115.322 32.4472C114.911 32.6117 114.459 32.8379 113.966 33.1258C113.514 33.3725 113.062 33.4959 112.611 33.4959C112.036 33.4959 111.399 33.352 110.701 33.0641C110.043 32.7762 109.448 32.3855 108.914 31.892C108.38 31.3574 108.072 30.7817 107.99 30.1648H107.928V29.0545C107.928 28.3965 108.01 27.9647 108.174 27.759C108.257 27.6357 108.318 27.4917 108.359 27.3272C108.4 27.1216 108.441 26.9571 108.482 26.8337L109.345 25.6C109.468 25.3944 109.776 25.0243 110.269 24.4896C110.803 23.955 111.358 23.4204 111.933 22.8858C112.508 22.3512 112.919 21.981 113.165 21.7754C113.494 21.4875 113.987 21.1586 114.644 20.7884C115.301 20.4183 115.958 20.0482 116.616 19.6781C117.314 19.3079 117.868 19.0201 118.279 18.8145L118.526 18.7528C118.731 18.5883 119.06 18.4238 119.511 18.2593C120.004 18.0537 120.353 17.9303 120.559 17.8892C120.805 17.8069 121.196 17.7658 121.73 17.7658C122.264 17.7247 122.674 17.6835 122.962 17.6424C123.208 17.6424 123.414 17.6013 123.578 17.519L124.872 17.8892C125.324 17.9303 125.858 18.1359 126.474 18.506C127.09 18.8761 127.419 19.3491 127.46 19.9248C127.542 20.2127 127.521 20.4389 127.398 20.6034L126.844 20.2949C126.556 19.8426 126.145 19.5753 125.611 19.493C125.118 19.3696 124.605 19.3079 124.071 19.3079C122.921 19.3079 121.688 19.5958 120.374 20.1716C119.06 20.7062 117.807 21.4259 116.616 22.3306C115.424 23.1942 114.356 24.1401 113.412 25.1682C112.508 26.1963 111.851 27.1833 111.44 28.1292C111.399 28.2525 111.358 28.3759 111.317 28.4993C111.317 28.6226 111.296 28.7255 111.255 28.8077C111.132 29.2189 111.009 29.6096 110.885 29.9798C110.803 30.3499 110.783 30.7611 110.824 31.2135C110.824 31.5014 110.865 31.6659 110.947 31.707C111.029 31.7481 111.193 31.892 111.44 32.1388L111.933 32.3238L112.364 32.1388L112.857 31.9537C113.186 31.8304 113.453 31.6659 113.658 31.4602C113.822 31.378 113.966 31.3369 114.089 31.3369C114.213 31.2957 114.274 31.2546 114.274 31.2135C114.562 31.1312 114.706 31.0284 114.706 30.9051C114.747 30.7406 114.87 30.5761 115.075 30.4116C115.691 29.8358 116.287 29.2806 116.862 28.746C117.478 28.1703 118.053 27.574 118.587 26.9571C118.875 26.6281 119.224 26.258 119.635 25.8467C120.086 25.4355 120.497 25.0243 120.867 24.613C120.99 24.4896 121.093 24.3663 121.175 24.2429C121.298 24.0784 121.401 23.9345 121.483 23.8111C121.688 23.4821 121.997 23.0297 122.407 22.454C122.818 21.8371 123.29 21.5287 123.824 21.5287C123.907 21.4875 124.03 21.467 124.194 21.467C124.605 21.467 124.933 21.6315 125.18 21.9605C125.426 22.2484 125.55 22.5568 125.55 22.8858C125.55 23.297 125.467 23.6877 125.303 24.0578C125.139 24.3868 125.016 24.7364 124.933 25.1065C124.769 26.0524 124.687 26.9777 124.687 27.8824C124.687 28.1703 124.687 28.4581 124.687 28.746C124.687 29.0339 124.708 29.3423 124.749 29.6713C124.872 30.5349 125.303 31.3163 126.043 32.0154L126.289 32.0771C126.864 31.7481 127.254 31.4191 127.46 31.0901C127.706 30.7611 128.035 30.3499 128.445 29.8564C128.445 29.8564 128.487 29.8358 128.569 29.7947C128.651 29.7124 128.712 29.6713 128.754 29.6713C128.918 29.6713 129 29.7536 129 29.9181V29.9798C129 30.1443 128.979 30.3087 128.938 30.4732C128.897 30.5966 128.856 30.7611 128.815 30.9667C128.774 31.4602 128.528 32.0977 128.076 32.879C127.665 33.6604 127.069 34.0511 126.289 34.0511Z" fill="#8199B7"/>
</svg>
